<svg width="111" height="91" viewBox="0 0 111 91" fill="none" xmlns="http://www.w3.org/2000/svg">
<g clip-path="url(#clip0_396_185)">
<mask id="mask0_396_185" style="mask-type:luminance" maskUnits="userSpaceOnUse" x="-125" y="-481" width="596" height="842">
<path d="M470.601 -480.9H-124.699V361H470.601V-480.9Z" fill="white"/>
</mask>
<g mask="url(#mask0_396_185)">
<path d="M103.801 88.1992H98.0008V61.3992H101.601C102.501 61.3992 103.201 60.8992 103.501 60.0992C103.801 59.2992 103.601 58.3992 103.001 57.7992L94.4008 49.7992V41.4992C94.4008 40.3992 93.5008 39.3992 92.3008 39.3992H90.1008C89.5008 39.3992 88.9008 39.6992 88.5008 40.0992L86.5008 42.3992L78.7008 35.0992C78.3008 34.6992 77.8008 34.4992 77.3008 34.4992V28.6992C79.3008 28.6992 81.2008 29.3992 82.7008 30.7992L86.5008 34.2992C87.6008 33.6992 88.9008 33.3992 90.1008 33.3992H92.3008C96.7008 33.3992 100.201 36.8992 100.201 41.2992V47.0992L106.901 53.2992C109.301 55.4992 110.101 58.8992 108.901 61.9992C108.001 64.2992 106.101 65.9992 103.801 66.6992V88.1992Z" fill="#0078BF"/>
</g>
<mask id="mask1_396_185" style="mask-type:luminance" maskUnits="userSpaceOnUse" x="-125" y="-481" width="596" height="842">
<path d="M470.601 -480.9H-124.699V361H470.601V-480.9Z" fill="white"/>
</mask>
<g mask="url(#mask1_396_185)">
<path d="M55.3995 88.2004H49.5995V66.8004C47.2995 66.1004 45.4995 64.4004 44.5995 62.1004C43.3995 59.0004 44.2995 55.6004 46.6995 53.4004L71.9995 30.9004C73.3995 29.6004 75.2995 28.9004 77.2995 28.9004V34.7004C76.7995 34.7004 76.2995 34.9004 75.8995 35.2004L50.5995 57.7004C49.8995 58.3004 49.6995 59.2004 49.9995 60.0004C50.2995 60.8004 51.0995 61.3004 51.8995 61.3004H55.2995V88.2004H55.3995Z" fill="#0078BF"/>
</g>
<mask id="mask2_396_185" style="mask-type:luminance" maskUnits="userSpaceOnUse" x="-125" y="-481" width="596" height="842">
<path d="M470.601 -480.9H-124.699V361H470.601V-480.9Z" fill="white"/>
</mask>
<g mask="url(#mask2_396_185)">
<path d="M50.0022 59.9988C50.3022 60.7988 51.1022 61.2988 51.9022 61.2988H55.3022V72.1988C67.0022 66.2988 74.8022 54.1988 74.8022 40.1988C74.8022 38.8988 74.7022 37.5988 74.6022 36.2988L50.6022 57.6988C49.9022 58.2988 49.7022 59.1988 50.0022 59.9988Z" fill="#0078BF"/>
</g>
<mask id="mask3_396_185" style="mask-type:luminance" maskUnits="userSpaceOnUse" x="-125" y="-481" width="596" height="842">
<path d="M470.601 -480.9H-124.699V361H470.601V-480.9Z" fill="white"/>
</mask>
<g mask="url(#mask3_396_185)">
<path d="M44.6023 62.1C43.4023 59 44.3023 55.6 46.7023 53.4L72.0023 30.9C72.4023 30.5 72.9023 30.2 73.3023 30C71.9023 25.2 69.5023 20.8 66.3023 17C66.1023 17.4 65.9023 17.7 65.7023 18.1C65.0023 19.3 64.2023 20.9 63.4023 22.6C61.3023 26.7 58.7023 31.8 56.1023 35.3C56.0023 35.4 55.9023 35.4 55.8023 35.4L50.0023 31.5C49.9023 31.4 49.9023 31.3 49.9023 31.2C52.0023 27.4 55.4023 22.9 58.3023 19.2C59.4023 17.7 60.5023 16.3 61.3023 15.2C61.8023 14.5 62.3023 13.8 62.8023 13.3C56.3023 7.5 47.9023 4 38.6023 4C18.6023 4 2.40234 20.2 2.40234 40.2C2.40234 60.2 18.6023 76.4 38.6023 76.4C42.4023 76.4 46.1023 75.8 49.6023 74.7V66.8C47.3023 66.1 45.5023 64.4 44.6023 62.1ZM48.6023 33.8C48.6023 33.7 48.8023 33.6 48.9023 33.7C48.9023 33.7 48.9023 33.7 49.0023 33.7L54.2023 37.1C54.3023 37.2 54.3023 37.3 54.3023 37.4C53.4023 38.3 52.6023 39 51.7023 39.3C50.8023 39.6 50.0023 39.6 49.2023 39.1C48.4023 38.6 48.0023 37.9 48.0023 36.9C48.0023 36.1 48.2023 35 48.6023 33.8ZM38.4023 49.9C37.9023 49.6 37.4023 49.3 36.9023 48.9L36.8023 48.8C36.8023 48.7 36.9023 48.5 37.0023 48.5C38.0023 48.3 38.7023 48 39.2023 47.5C39.7023 47.1 39.9023 46.5 39.9023 45.8C40.1023 42.6 41.8023 40.8 43.7023 40.1C44.7023 39.7 45.8023 39.7 46.7023 39.9C47.7023 40.1 48.5023 40.6 49.1023 41.2C50.0023 42.2 50.2023 43.6 49.4023 45.3C49.1023 45.9 48.6023 46.6 48.1023 47.2C47.0023 48.5 45.4023 49.6 43.7023 50.2C42.1023 50.8 40.2023 50.8 38.4023 49.9Z" fill="#0078BF"/>
</g>
<mask id="mask4_396_185" style="mask-type:luminance" maskUnits="userSpaceOnUse" x="-125" y="-481" width="596" height="842">
<path d="M470.601 -480.9H-124.699V361H470.601V-480.9Z" fill="white"/>
</mask>
<g mask="url(#mask4_396_185)">
<path d="M58.1992 19.1C55.3992 22.8 51.8992 27.3 49.7992 31.1C49.6992 31.2 49.7992 31.4 49.8992 31.4L55.6992 35.1C55.7992 35.2 55.9992 35.1 55.9992 35C58.5992 31.5 61.0992 26.5 63.2992 22.3C64.1992 20.6 64.9992 19.1 65.5992 17.8C65.7992 17.4 65.9992 17 66.1992 16.7C65.0992 15.4 63.8992 14.2 62.5992 13C62.0992 13.6 61.5992 14.2 61.0992 14.9C60.3992 16.3 59.3992 17.6 58.1992 19.1Z" fill="white"/>
</g>
<mask id="mask5_396_185" style="mask-type:luminance" maskUnits="userSpaceOnUse" x="-125" y="-481" width="596" height="842">
<path d="M470.601 -480.9H-124.699V361H470.601V-480.9Z" fill="white"/>
</mask>
<g mask="url(#mask5_396_185)">
<path d="M49.5023 45.2989C50.3023 43.5989 50.1023 42.1989 49.2023 41.1989C48.6023 40.4989 47.7023 40.099 46.8023 39.899C45.8023 39.699 44.8023 39.6989 43.8023 40.0989C41.9023 40.7989 40.2023 42.5989 40.0023 45.7989C40.0023 46.4989 39.8023 46.9989 39.3023 47.4989C38.8023 47.9989 38.1023 48.2989 37.1023 48.4989C37.0023 48.4989 36.9023 48.6989 36.9023 48.7989C36.9023 48.8989 36.9023 48.899 37.0023 48.899C37.5023 49.299 38.0023 49.699 38.5023 49.899C40.2023 50.799 42.1023 50.6989 43.8023 50.0989C45.5023 49.4989 47.1023 48.3989 48.2023 47.0989C48.7023 46.5989 49.2023 45.9989 49.5023 45.2989Z" fill="white"/>
</g>
<mask id="mask6_396_185" style="mask-type:luminance" maskUnits="userSpaceOnUse" x="-125" y="-481" width="596" height="842">
<path d="M470.601 -480.9H-124.699V361H470.601V-480.9Z" fill="white"/>
</mask>
<g mask="url(#mask6_396_185)">
<path d="M49.2 39.0992C50 39.5992 50.8 39.5992 51.7 39.2992C52.5 38.9992 53.4 38.2992 54.3 37.3992C54.4 37.2992 54.3 37.0992 54.2 37.0992L49 33.6992C49 33.6992 49 33.6992 48.9 33.6992C48.8 33.6992 48.6 33.6992 48.6 33.7992C48.2 34.9992 48 36.0992 48 36.9992C48.1 37.8992 48.5 38.5992 49.2 39.0992Z" fill="white"/>
</g>
<mask id="mask7_396_185" style="mask-type:luminance" maskUnits="userSpaceOnUse" x="-125" y="-481" width="596" height="842">
<path d="M470.601 -480.9H-124.699V361H470.601V-480.9Z" fill="white"/>
</mask>
<g mask="url(#mask7_396_185)">
<path d="M77.3023 28.9004C75.9023 28.9004 74.6023 29.3004 73.4023 30.0004C74.0023 32.1004 74.5023 34.2004 74.7023 36.4004L76.0023 35.3004C76.4023 35.0004 76.9023 34.8004 77.4023 34.8004V31.9004L77.3023 28.9004Z" fill="white"/>
</g>
<mask id="mask8_396_185" style="mask-type:luminance" maskUnits="userSpaceOnUse" x="-125" y="-481" width="596" height="842">
<path d="M470.601 -480.9H-124.699V361H470.601V-480.9Z" fill="white"/>
</mask>
<g mask="url(#mask8_396_185)">
<path d="M71.9992 30.9L46.6992 53.4C44.1992 55.6 43.3992 59 44.5992 62.1C45.4992 64.4 47.2992 66.1 49.5992 66.8V74.7C51.5992 74.1 53.5992 73.2 55.3992 72.3V61.4H51.9992C51.0992 61.4 50.3992 60.9 50.0992 60.1C49.7992 59.3 49.9992 58.4 50.6992 57.8L74.6992 36.4C74.4992 34.2 73.9992 32 73.3992 30C72.8992 30.2 72.3992 30.5 71.9992 30.9Z" fill="white"/>
</g>
<mask id="mask9_396_185" style="mask-type:luminance" maskUnits="userSpaceOnUse" x="-125" y="-481" width="596" height="842">
<path d="M470.601 -480.9H-124.699V361H470.601V-480.9Z" fill="white"/>
</mask>
<g mask="url(#mask9_396_185)">
<path fill-rule="evenodd" clip-rule="evenodd" d="M30.4 20.4989C29 20.8989 28.2 22.2989 28.5 23.4989C28.9 24.6989 30.3 25.2989 31.7 24.8989C33.1 24.4989 33.9 23.0989 33.6 21.8989C33.3 20.5989 31.8 19.9989 30.4 20.4989ZM30 19.1989C27.8 19.8989 26.5 21.9989 27 23.8989C27.6 25.7989 29.9 26.7989 32.1 26.0989C34.3 25.3989 35.6 23.2989 35 21.3989C34.5 19.4989 32.3 18.4989 30 19.1989ZM40.3 37.5989C43.1 35.3989 48 27.5989 43.6 26.0989C41.2 25.2989 38.2 27.5989 36.6 25.9989C34.7 23.9989 37.6 22.2989 36.9 20.3989C35.9 17.6989 30.4 17.6989 27.7 18.0989C21.8 18.9989 16.3 22.1989 12.4 26.2989C-0.5 40.0989 25.3 49.0989 40.3 37.5989ZM31.8 36.3989C31.6 34.7989 30.3 33.7989 29.1 34.0989C27.8 34.3989 27 35.8989 27.2 37.4989C27.4 39.0989 28.7 40.0989 29.9 39.7989C31.2 39.4989 32 37.9989 31.8 36.3989ZM23.8 37.7989C24.7 36.2989 24.5 34.7989 23.4 34.3989C22.3 33.9989 20.6 34.7989 19.7 36.2989C18.8 37.7989 19 39.2989 20.1 39.6989C21.3 40.0989 22.9 39.2989 23.8 37.7989ZM16.8 34.7989C18.5 34.0989 19.5 32.6989 19 31.6989C18.5 30.6989 16.7 30.3989 15 31.0989C13.3 31.7989 12.3 33.1989 12.8 34.1989C13.3 35.1989 15.1 35.3989 16.8 34.7989ZM38.3 30.6989C36.7 30.0989 34.9 30.3989 34.4 31.4989C33.8 32.5989 34.7 33.8989 36.3 34.4989C37.9 35.0989 39.7 34.7989 40.2 33.6989C40.8 32.6989 40 31.2989 38.3 30.6989ZM19.3 27.7989C21.1 27.9989 22.7 27.2989 23 26.1989C23.3 25.0989 22 23.9989 20.2 23.6989C18.4 23.4989 16.8 24.1989 16.5 25.2989C16.2 26.4989 17.5 27.5989 19.3 27.7989ZM41.4 38.7989C38.4 41.0989 35 42.6989 31.3 43.5989C27.9 44.3989 24.4 44.6989 20.9 44.2989C17.9 43.9989 14.9 43.0989 12.3 41.5989C10.2 40.2989 8.3 38.4989 7.5 36.0989C7 34.3989 7 32.6989 7.5 30.9989C8.2 28.8989 9.6 26.8989 11.1 25.2989C15.4 20.7989 21.3 17.3989 27.5 16.4989C30.7 15.9989 37.2 16.0989 38.5 19.7989C39 20.9989 38.6 22.0989 38 23.2989C37.9 23.5989 37.6 23.9989 37.6 24.3989C37.6 24.6989 37.7 24.7989 37.9 24.9989C37.9 24.9989 38 25.0989 38.1 25.0989C38.6 25.1989 40.1 24.7989 40.6 24.6989C41.3 24.5989 42.1 24.3989 42.9 24.4989C43.4 24.4989 43.8 24.5989 44.3 24.7989C45.1 25.0989 45.8 25.4989 46.4 26.1989C48.1 28.4989 46.5 32.1989 45.2 34.3989C44.2 35.7989 42.9 37.5989 41.4 38.7989Z" fill="white"/>
</g>
</g>
<defs>
<clipPath id="clip0_396_185">
<rect width="110.7" height="90.7" fill="white"/>
</clipPath>
</defs>
</svg>
