<svg width="111" height="91" viewBox="0 0 111 91" fill="none" xmlns="http://www.w3.org/2000/svg">
<g clip-path="url(#clip0_396_403)">
<mask id="mask0_396_403" style="mask-type:luminance" maskUnits="userSpaceOnUse" x="-125" y="-241" width="596" height="842">
<path d="M470.601 -240.9H-124.699V601H470.601V-240.9Z" fill="white"/>
</mask>
<g mask="url(#mask0_396_403)">
<path d="M103.801 87.7992H98.0008V60.8992H101.601C102.501 60.8992 103.201 60.3992 103.501 59.5992C103.801 58.7992 103.601 57.8992 103.001 57.2992L94.4008 49.2992V40.9992C94.4008 39.8992 93.5008 38.8992 92.3008 38.8992H90.1008C89.5008 38.8992 88.9008 39.1992 88.5008 39.5992L86.5008 41.8992L78.7008 34.5992C78.3008 34.1992 77.8008 33.9992 77.3008 33.9992V28.1992C79.3008 28.1992 81.2008 28.9992 82.7008 30.2992L86.5008 33.7992C87.6008 33.1992 88.9008 32.8992 90.1008 32.8992H92.3008C96.7008 32.8992 100.201 36.3992 100.201 40.7992V46.5992L106.901 52.7992C109.301 54.9992 110.101 58.3992 108.901 61.4992C108.001 63.7992 106.101 65.4992 103.801 66.1992V87.7992Z" fill="#0078BF"/>
</g>
<mask id="mask1_396_403" style="mask-type:luminance" maskUnits="userSpaceOnUse" x="-125" y="-241" width="596" height="842">
<path d="M470.601 -240.9H-124.699V601H470.601V-240.9Z" fill="white"/>
</mask>
<g mask="url(#mask1_396_403)">
<path d="M55.3995 87.8004H49.5995V66.4004C47.2995 65.7004 45.4995 64.0004 44.5995 61.7004C43.3995 58.6004 44.2995 55.2004 46.6995 53.0004L71.9995 30.4004C73.4995 29.1004 75.2995 28.4004 77.2995 28.4004V34.2004C76.7995 34.2004 76.2995 34.4004 75.8995 34.7004L50.5995 57.3004C49.8995 57.9004 49.6995 58.8004 49.9995 59.6004C50.2995 60.4004 51.0995 60.9004 51.8995 60.9004H55.2995V87.8004H55.3995Z" fill="#0078BF"/>
</g>
<mask id="mask2_396_403" style="mask-type:luminance" maskUnits="userSpaceOnUse" x="-125" y="-241" width="596" height="842">
<path d="M470.601 -240.9H-124.699V601H470.601V-240.9Z" fill="white"/>
</mask>
<g mask="url(#mask2_396_403)">
<path d="M44.6023 61.6996C43.4023 58.5996 44.3023 55.1996 46.7023 52.9996L72.0023 30.3996C72.4023 29.9996 72.9023 29.6996 73.3023 29.4996C68.9023 14.4996 55.0023 3.59961 38.6023 3.59961C32.3023 3.59961 26.4023 5.19961 21.2023 7.99961L24.3023 11.0996C24.9023 11.6996 24.9023 12.5996 24.3023 13.0996C24.0023 13.3996 23.7023 13.4996 23.3023 13.4996C22.9023 13.4996 22.6023 13.3996 22.3023 13.0996L18.7023 9.49961C14.1023 12.4996 10.2023 16.5996 7.40234 21.3996L14.6023 28.5996C15.2023 29.1996 15.2023 30.0996 14.6023 30.5996C14.3023 30.8996 14.0023 30.9996 13.6023 30.9996C13.2023 30.9996 12.9023 30.8996 12.6023 30.5996L6.00234 23.9996C3.70234 28.7996 2.40234 34.0996 2.40234 39.7996C2.40234 59.7996 18.6023 75.9996 38.6023 75.9996C42.4023 75.9996 46.1023 75.3996 49.6023 74.2996V66.3996C47.3023 65.6996 45.5023 63.9996 44.6023 61.6996Z" fill="#0078BF"/>
</g>
<mask id="mask3_396_403" style="mask-type:luminance" maskUnits="userSpaceOnUse" x="-125" y="-241" width="596" height="842">
<path d="M470.601 -240.9H-124.699V601H470.601V-240.9Z" fill="white"/>
</mask>
<g mask="url(#mask3_396_403)">
<path d="M50.6022 57.3004C49.9022 57.9004 49.7022 58.8004 50.0022 59.6004C50.3022 60.4004 51.1022 60.9004 51.9022 60.9004H55.3022V71.8004C67.0022 65.8004 74.8022 53.7004 74.8022 39.8004C74.8022 38.5004 74.7022 37.2004 74.6022 35.9004L50.6022 57.3004Z" fill="#0078BF"/>
</g>
<mask id="mask4_396_403" style="mask-type:luminance" maskUnits="userSpaceOnUse" x="-125" y="-241" width="596" height="842">
<path d="M470.601 -240.9H-124.699V601H470.601V-240.9Z" fill="white"/>
</mask>
<g mask="url(#mask4_396_403)">
<path d="M51.9992 60.9C51.0992 60.9 50.3992 60.4 50.0992 59.6C49.7992 58.8 49.9992 57.9 50.6992 57.3L74.6992 35.9C74.4992 33.7 73.9992 31.5 73.3992 29.5C72.8992 29.8 72.4992 30.1 72.0992 30.4L46.6992 52.9C44.1992 55.1 43.3992 58.5 44.5992 61.6C45.4992 63.9 47.2992 65.6 49.5992 66.3V74.2C51.5992 73.6 53.5992 72.7 55.3992 71.8V60.9H51.9992Z" fill="white"/>
</g>
<mask id="mask5_396_403" style="mask-type:luminance" maskUnits="userSpaceOnUse" x="-125" y="-241" width="596" height="842">
<path d="M470.601 -240.9H-124.699V601H470.601V-240.9Z" fill="white"/>
</mask>
<g mask="url(#mask5_396_403)">
<path d="M13.6 31.1C14 31.1 14.3 31 14.6 30.7C15.2 30.1 15.2 29.2 14.6 28.7L7.4 21.5C6.9 22.3 6.4 23.2 6 24.1L12.6 30.7C12.9 31 13.3 31.1 13.6 31.1Z" fill="white"/>
</g>
<mask id="mask6_396_403" style="mask-type:luminance" maskUnits="userSpaceOnUse" x="-125" y="-241" width="596" height="842">
<path d="M470.601 -240.9H-124.699V601H470.601V-240.9Z" fill="white"/>
</mask>
<g mask="url(#mask6_396_403)">
<path d="M23.3992 13.6C23.7992 13.6 24.0992 13.5 24.3992 13.2C24.9992 12.6 24.9992 11.7 24.3992 11.2L21.1992 8C20.2992 8.5 19.4992 9 18.6992 9.5L22.2992 13.1C22.5992 13.5 22.9992 13.6 23.3992 13.6Z" fill="white"/>
</g>
<mask id="mask7_396_403" style="mask-type:luminance" maskUnits="userSpaceOnUse" x="-125" y="-241" width="596" height="842">
<path d="M470.601 -240.9H-124.699V601H470.601V-240.9Z" fill="white"/>
</mask>
<g mask="url(#mask7_396_403)">
<path d="M26.7 44.4996C29 42.4996 29.3 39.0996 27.3 36.6996C26.8 36.0996 25.7 35.1996 22 33.9996C20.1 33.3996 18.4 32.9996 18.3 32.9996L16.5 32.5996L16.6 34.4996C16.6 34.5996 16.7 36.2996 17 38.2996C17.6 42.0996 18.3 43.3996 18.8 43.8996C20.9 46.0996 24.4 46.3996 26.7 44.4996Z" fill="white"/>
</g>
<mask id="mask8_396_403" style="mask-type:luminance" maskUnits="userSpaceOnUse" x="-125" y="-241" width="596" height="842">
<path d="M470.601 -240.9H-124.699V601H470.601V-240.9Z" fill="white"/>
</mask>
<g mask="url(#mask8_396_403)">
<path d="M36.3992 26.9C38.6992 24.9 38.9992 21.5 36.9992 19.1C36.4992 18.5 35.3992 17.6 31.6992 16.4C29.7992 15.8 28.0992 15.4 27.9992 15.4L26.1992 15L26.2992 16.9C26.2992 17 26.3992 18.7 26.6992 20.7C27.2992 24.5 27.9992 25.8 28.4992 26.3C30.5992 28.6 34.0992 28.9 36.3992 26.9Z" fill="white"/>
</g>
<mask id="mask9_396_403" style="mask-type:luminance" maskUnits="userSpaceOnUse" x="-125" y="-241" width="596" height="842">
<path d="M470.601 -240.9H-124.699V601H470.601V-240.9Z" fill="white"/>
</mask>
<g mask="url(#mask9_396_403)">
<path d="M51.6024 43.9996C51.2024 43.9996 50.9024 43.8996 50.6024 43.5996L40.7024 33.5996C40.1024 32.9996 40.2024 32.0996 40.7024 31.5996C41.3024 31.0996 42.2024 31.0996 42.7024 31.5996L52.6024 41.5996C53.2024 42.1996 53.1024 43.0996 52.6024 43.5996C52.3024 43.7996 52.0024 43.9996 51.6024 43.9996Z" fill="white"/>
</g>
<mask id="mask10_396_403" style="mask-type:luminance" maskUnits="userSpaceOnUse" x="-125" y="-241" width="596" height="842">
<path d="M470.601 -240.9H-124.699V601H470.601V-240.9Z" fill="white"/>
</mask>
<g mask="url(#mask10_396_403)">
<path d="M55.401 41.2994C55.301 41.2994 55.301 41.2994 55.201 41.2994C54.401 41.1994 53.901 40.4994 54.001 39.6994L55.001 32.0994C55.101 31.2994 55.801 30.7994 56.601 30.8994C57.401 30.9994 57.901 31.6994 57.801 32.4994L56.801 40.0994C56.701 40.7994 56.101 41.2994 55.401 41.2994Z" fill="white"/>
</g>
<mask id="mask11_396_403" style="mask-type:luminance" maskUnits="userSpaceOnUse" x="-125" y="-241" width="596" height="842">
<path d="M470.601 -240.9H-124.699V601H470.601V-240.9Z" fill="white"/>
</mask>
<g mask="url(#mask11_396_403)">
<path d="M48.5008 47.3C48.3008 47.3 48.2008 47.3 48.0008 47.2L40.4008 44.4C39.7008 44.1 39.3008 43.3 39.6008 42.6C39.9008 41.9 40.7008 41.5 41.4008 41.8L49.0008 44.6C49.7008 44.9 50.1008 45.7 49.8008 46.4C49.6008 46.9 49.0008 47.3 48.5008 47.3Z" fill="white"/>
</g>
</g>
<defs>
<clipPath id="clip0_396_403">
<rect width="110.7" height="90.7" fill="white"/>
</clipPath>
</defs>
</svg>
