<svg width="111" height="91" viewBox="0 0 111 91" fill="none" xmlns="http://www.w3.org/2000/svg">
<g clip-path="url(#clip0_396_621)">
<mask id="mask0_396_621" style="mask-type:luminance" maskUnits="userSpaceOnUse" x="-125" y="-610" width="596" height="842">
<path d="M470.601 -609.9H-124.699V232H470.601V-609.9Z" fill="white"/>
</mask>
<g mask="url(#mask0_396_621)">
<path d="M74.8023 39.9988C74.8023 59.9988 58.6023 76.1988 38.6023 76.1988C18.6023 76.1988 2.40234 60.0988 2.40234 39.9988C2.40234 19.8988 18.6023 3.79883 38.6023 3.79883C58.6023 3.79883 74.8023 19.9988 74.8023 39.9988Z" fill="#0078BF"/>
</g>
<mask id="mask1_396_621" style="mask-type:luminance" maskUnits="userSpaceOnUse" x="-125" y="-610" width="596" height="842">
<path d="M470.601 -609.9H-124.699V232H470.601V-609.9Z" fill="white"/>
</mask>
<g mask="url(#mask1_396_621)">
<path d="M103.801 87.9996H98.0008V61.1996H101.601C102.501 61.1996 103.201 60.6996 103.501 59.8996C103.801 59.0996 103.601 58.1996 103.001 57.5996L94.4008 49.5996V41.2996C94.4008 40.1996 93.5008 39.1996 92.3008 39.1996H90.1008C89.5008 39.1996 88.9008 39.4996 88.5008 39.8996L86.5008 42.1996L78.7008 34.9996C78.3008 34.5996 77.8008 34.3996 77.3008 34.3996V28.5996C79.3008 28.5996 81.2008 29.3996 82.7008 30.6996L86.5008 34.1996C87.6008 33.5996 88.9008 33.2996 90.1008 33.2996H92.3008C96.7008 33.2996 100.201 36.7996 100.201 41.1996V46.9996L106.901 53.1996C109.301 55.3996 110.101 58.7996 108.901 61.8996C108.001 64.1996 106.101 65.8996 103.801 66.5996V87.9996Z" fill="#0078BF"/>
</g>
<mask id="mask2_396_621" style="mask-type:luminance" maskUnits="userSpaceOnUse" x="-125" y="-610" width="596" height="842">
<path d="M470.601 -609.9H-124.699V232H470.601V-609.9Z" fill="white"/>
</mask>
<g mask="url(#mask2_396_621)">
<path d="M55.3995 87.9992H49.5995V66.6992C47.2995 65.9992 45.4995 64.2992 44.5995 61.9992C43.3995 58.8992 44.2995 55.4992 46.6995 53.2992L71.9995 30.6992C73.4995 29.3992 75.2995 28.6992 77.2995 28.6992V34.4992C76.7995 34.4992 76.2995 34.6992 75.8995 34.9992L50.5995 57.4992C49.8995 58.0992 49.6995 58.9992 49.9995 59.7992C50.2995 60.5992 51.0995 61.0992 51.8995 61.0992H55.2995V87.9992H55.3995Z" fill="#0078BF"/>
</g>
<mask id="mask3_396_621" style="mask-type:luminance" maskUnits="userSpaceOnUse" x="2" y="3" width="73" height="74">
<path d="M2.39844 40.0008C2.39844 60.0008 18.5984 76.2008 38.5984 76.2008C58.5984 76.2008 74.7984 60.0008 74.7984 40.0008C74.7984 20.0008 58.5984 3.80078 38.5984 3.80078C18.5984 3.80078 2.39844 20.0008 2.39844 40.0008Z" fill="white"/>
</mask>
<g mask="url(#mask3_396_621)">
<path d="M55.3995 88.0012H49.5995V66.7012C47.2995 66.0012 45.4995 64.3012 44.5995 62.0012C43.3995 58.9012 44.2995 55.5012 46.6995 53.3012L71.9995 30.7012C73.4995 29.4012 75.2995 28.7012 77.2995 28.7012V34.5012C76.7995 34.5012 76.2995 34.7012 75.8995 35.0012L50.5995 57.5012C49.8995 58.1012 49.6995 59.0012 49.9995 59.8012C50.2995 60.6012 51.0995 61.1012 51.8995 61.1012H55.2995V88.0012H55.3995Z" fill="white"/>
</g>
<mask id="mask4_396_621" style="mask-type:luminance" maskUnits="userSpaceOnUse" x="-125" y="-610" width="596" height="842">
<path d="M470.601 -609.9H-124.699V232H470.601V-609.9Z" fill="white"/>
</mask>
<g mask="url(#mask4_396_621)">
<path d="M28.7008 52.2999C28.6008 52.2999 28.6008 52.2999 28.6008 52.2999C26.5008 52.1999 24.7008 51.6999 22.3008 50.5999C21.5008 50.1999 20.8008 49.7999 20.1008 49.4999L20.3008 48.7999L20.0008 49.3999L19.8008 49.2999C18.2008 48.4999 16.0008 48.1999 14.0008 47.9999C13.6008 47.9999 13.3008 47.5999 13.3008 47.1999C13.3008 46.7999 13.7008 46.4999 14.1008 46.4999C16.2008 46.6999 18.6008 46.9999 20.5008 47.8999L20.7008 47.9999L20.5008 48.6999L20.8008 48.0999C21.5008 48.4999 22.2008 48.7999 23.0008 49.1999C25.2008 50.2999 26.8008 50.6999 28.7008 50.7999C30.0008 50.7999 32.9008 50.1999 39.0008 46.8999C42.0008 45.1999 47.6008 42.1999 47.7008 40.8999C47.7008 40.8999 47.7008 40.7999 47.5008 40.5999C46.4008 39.6999 42.2008 41.8999 39.1008 43.5999C38.4008 43.9999 37.6008 44.3999 36.9008 44.6999C36.5008 44.8999 36.1008 44.6999 35.9008 44.3999C35.7008 43.9999 35.9008 43.5999 36.2008 43.3999C36.9008 42.9999 37.6008 42.6999 38.4008 42.2999C42.8008 39.9999 46.5008 37.9999 48.4008 39.4999C49.1008 39.9999 49.2008 40.6999 49.1008 41.0999C48.9008 42.8999 46.0008 44.7999 39.6008 48.2999C34.6008 50.8999 30.9008 52.2999 28.7008 52.2999Z" fill="white"/>
</g>
<mask id="mask5_396_621" style="mask-type:luminance" maskUnits="userSpaceOnUse" x="-125" y="-610" width="596" height="842">
<path d="M470.601 -609.9H-124.699V232H470.601V-609.9Z" fill="white"/>
</mask>
<g mask="url(#mask5_396_621)">
<path d="M33.9006 47.9988C32.9006 47.9988 31.6006 47.5988 29.9006 46.9988C29.4006 46.7988 29.0006 46.6988 28.5006 46.4988C26.4006 45.7988 24.6006 45.0988 22.1006 44.8988C21.7006 44.8988 21.4006 44.4988 21.4006 44.0988C21.4006 43.6988 21.8006 43.3988 22.2006 43.3988C24.9006 43.5988 26.8006 44.2988 29.0006 45.0988C29.4006 45.2988 29.9006 45.3988 30.4006 45.5988C32.1006 46.1988 33.8006 46.6988 34.3006 46.4988C34.3006 46.4988 34.5006 46.3988 34.5006 46.0988C34.8006 45.1988 32.2006 42.8988 28.5006 41.3988C27.4006 40.8988 26.4006 40.2988 25.5006 39.6988C24.3006 38.8988 23.2006 38.1988 22.0006 37.9988C20.2006 37.7988 18.6006 38.1988 17.2006 38.5988C16.1006 38.9988 15.1006 39.1988 14.2006 39.4988C13.8006 39.5988 13.4006 39.2988 13.3006 38.8988C13.2006 38.4988 13.5006 38.0988 13.9006 37.9988C14.8006 37.7988 15.7006 37.4988 16.8006 37.1988C18.2006 36.6988 20.2006 36.1988 22.3006 36.4988C23.9006 36.6988 25.1006 37.4988 26.5006 38.3988C27.4006 38.9988 28.3006 39.4988 29.3006 39.8988C32.5006 41.1988 36.9006 43.8988 36.2006 46.3988C36.0006 46.9988 35.7006 47.3988 35.2006 47.5988C34.6006 47.8988 34.3006 47.9988 33.9006 47.9988Z" fill="white"/>
</g>
<mask id="mask6_396_621" style="mask-type:luminance" maskUnits="userSpaceOnUse" x="-125" y="-610" width="596" height="842">
<path d="M470.601 -609.9H-124.699V232H470.601V-609.9Z" fill="white"/>
</mask>
<g mask="url(#mask6_396_621)">
<path d="M34.6025 42.7C34.4025 42.7 34.1025 42.6 34.0025 42.4C33.8025 42.1 33.9025 41.6 34.2025 41.4L34.9025 40.9C37.5025 39.2 40.2025 37.5 42.2025 37.5C43.1025 37.5 43.8025 37.7 44.2025 38.2C44.5025 38.5 44.5025 39 44.2025 39.2C43.9025 39.5 43.4025 39.5 43.2025 39.2C43.1025 39.1 42.8025 39 42.3025 39C40.8025 39 38.1025 40.7 35.8025 42.2L35.0025 42.6C34.9025 42.7 34.8025 42.7 34.6025 42.7Z" fill="white"/>
</g>
<mask id="mask7_396_621" style="mask-type:luminance" maskUnits="userSpaceOnUse" x="-125" y="-610" width="596" height="842">
<path d="M470.601 -609.9H-124.699V232H470.601V-609.9Z" fill="white"/>
</mask>
<g mask="url(#mask7_396_621)">
<path d="M32.8993 41.5988C32.6993 41.5988 32.4993 41.4988 32.2993 41.2988C32.0993 40.9988 32.0993 40.4988 32.4993 40.2988C32.9993 39.8988 33.3993 39.5988 33.8993 39.2988C35.5993 37.9988 36.9993 36.8988 38.4993 36.7988C38.8993 36.7988 39.1993 36.7988 39.4993 36.8988C39.8993 36.9988 40.0993 37.3988 40.0993 37.7988C39.9993 38.1988 39.5993 38.3988 39.1993 38.3988C39.0993 38.3988 38.8993 38.3988 38.5993 38.3988C37.5993 38.4988 36.2993 39.4988 34.7993 40.5988C34.3993 40.8988 33.8993 41.2988 33.3993 41.5988C33.1993 41.4988 33.0993 41.5988 32.8993 41.5988Z" fill="white"/>
</g>
<mask id="mask8_396_621" style="mask-type:luminance" maskUnits="userSpaceOnUse" x="-125" y="-610" width="596" height="842">
<path d="M470.601 -609.9H-124.699V232H470.601V-609.9Z" fill="white"/>
</mask>
<g mask="url(#mask8_396_621)">
<path d="M30.9999 40.5004C30.7999 40.5004 30.5999 40.4004 30.3999 40.2004C30.0999 39.9004 30.1999 39.4004 30.4999 39.2004C31.0999 38.8004 31.4999 38.4004 31.7999 38.0004C32.5999 37.3004 33.1999 36.7004 34.1999 36.6004C34.5999 36.5004 34.8999 36.5004 35.1999 36.6004C35.5999 36.7004 35.8999 37.1004 35.7999 37.5004C35.6999 37.9004 35.2999 38.2004 34.8999 38.1004C34.7999 38.1004 34.5999 38.1004 34.3999 38.1004C33.8999 38.2004 33.5999 38.5004 32.7999 39.2004C32.3999 39.5004 31.9999 40.0004 31.3999 40.5004C31.3999 40.4004 31.1999 40.5004 30.9999 40.5004Z" fill="white"/>
</g>
<mask id="mask9_396_621" style="mask-type:luminance" maskUnits="userSpaceOnUse" x="-125" y="-610" width="596" height="842">
<path d="M470.601 -609.9H-124.699V232H470.601V-609.9Z" fill="white"/>
</mask>
<g mask="url(#mask9_396_621)">
<path d="M13.6 49.7992H9.6C9 49.7992 8.5 49.2992 8.5 48.6992V37.7992C8.5 37.1992 9 36.6992 9.6 36.6992H13.5C14.1 36.6992 14.6 37.1992 14.6 37.7992V48.6992C14.7 49.2992 14.2 49.7992 13.6 49.7992ZM10 48.2992H13.2V38.1992H10V48.2992Z" fill="white"/>
</g>
<mask id="mask10_396_621" style="mask-type:luminance" maskUnits="userSpaceOnUse" x="-125" y="-610" width="596" height="842">
<path d="M470.601 -609.9H-124.699V232H470.601V-609.9Z" fill="white"/>
</mask>
<g mask="url(#mask10_396_621)">
<path d="M39.5992 30.7994C39.2992 30.7994 38.9992 30.5994 38.8992 30.1994C38.7992 29.7994 38.9992 29.3994 39.3992 29.2994C41.6992 28.6994 43.7992 26.7994 44.8992 24.0994C45.7992 22.0994 45.7992 20.4994 45.3992 19.7994C44.7992 18.6994 40.7992 17.2994 36.7992 17.7994C34.2992 18.0994 32.5992 18.7994 31.7992 19.1994C31.3992 19.3994 30.9992 19.2994 30.7992 18.8994C30.5992 18.4994 30.6992 18.0994 31.0992 17.8994C31.9992 17.3994 33.8992 16.5994 36.5992 16.2994C40.7992 15.7994 45.5992 17.1994 46.6992 19.0994C47.3992 20.2994 47.1992 22.4994 46.1992 24.6994C44.7992 27.7994 42.3992 30.0994 39.6992 30.6994C39.7992 30.7994 39.6992 30.7994 39.5992 30.7994Z" fill="white"/>
</g>
<mask id="mask11_396_621" style="mask-type:luminance" maskUnits="userSpaceOnUse" x="-125" y="-610" width="596" height="842">
<path d="M470.601 -609.9H-124.699V232H470.601V-609.9Z" fill="white"/>
</mask>
<g mask="url(#mask11_396_621)">
<path d="M31.9016 31.8994C31.7016 31.8994 31.4016 31.8994 31.2016 31.8994C29.4016 31.6994 27.5016 31.0994 25.8016 30.3994C23.1016 29.3994 20.5016 28.4994 18.1016 29.2994C17.9016 29.3994 17.6016 29.2994 17.4016 29.1994C17.2016 29.0994 17.1016 28.7994 17.1016 28.5994C17.1016 28.2994 17.4016 21.5994 23.5016 19.4994C25.5016 18.7994 27.8016 18.8994 29.8016 19.6994C31.4016 20.2994 33.1016 20.9994 33.1016 20.9994C33.5016 21.1994 33.7016 21.5994 33.5016 21.9994C33.3016 22.3994 32.9016 22.5994 32.5016 22.3994C32.5016 22.3994 30.9016 21.6994 29.2016 21.0994C27.4016 20.3994 25.5016 20.3994 23.9016 20.8994C20.0016 22.1994 18.9016 25.8994 18.6016 27.6994C21.1016 27.2994 23.7016 28.1994 26.2016 29.0994C27.9016 29.6994 29.6016 30.2994 31.3016 30.4994C33.6016 30.6994 36.4016 29.4994 38.2016 27.4994C39.0016 26.6994 39.5016 25.9994 39.5016 25.9994C39.8016 25.6994 40.2016 25.5994 40.5016 25.8994C40.8016 26.1994 40.9016 26.5994 40.6016 26.8994C40.6016 26.8994 40.0016 27.5994 39.2016 28.4994C37.3016 30.4994 34.5016 31.8994 31.9016 31.8994Z" fill="white"/>
</g>
<mask id="mask12_396_621" style="mask-type:luminance" maskUnits="userSpaceOnUse" x="-125" y="-610" width="596" height="842">
<path d="M470.601 -609.9H-124.699V232H470.601V-609.9Z" fill="white"/>
</mask>
<g mask="url(#mask12_396_621)">
<path d="M23.2997 25.7988C22.9997 25.7988 22.6997 25.5988 22.5997 25.2988C22.4997 24.8988 22.6997 24.4988 23.0997 24.3988C25.0997 23.8988 26.5997 23.9988 28.2997 24.1988C30.2997 24.3988 32.2997 24.5988 35.4997 23.6988C38.9997 22.7988 42.9997 21.2988 49.1997 16.4988C49.4997 16.2988 49.9997 16.2988 50.1997 16.5988C50.3997 16.8988 50.3997 17.3988 50.0997 17.5988C43.6997 22.4988 39.4997 24.0988 35.8997 25.0988C32.3997 25.9988 30.1997 25.7988 28.0997 25.5988C26.4997 25.3988 25.1997 25.2988 23.4997 25.7988C23.3997 25.7988 23.3997 25.7988 23.2997 25.7988Z" fill="white"/>
</g>
</g>
<defs>
<clipPath id="clip0_396_621">
<rect width="110.7" height="90.7" fill="white"/>
</clipPath>
</defs>
</svg>
