<svg width="111" height="91" viewBox="0 0 111 91" fill="none" xmlns="http://www.w3.org/2000/svg">
<g clip-path="url(#clip0_396_839)">
<mask id="mask0_396_839" style="mask-type:luminance" maskUnits="userSpaceOnUse" x="-124" y="-114" width="596" height="842">
<path d="M471.601 -113.9H-123.699V728H471.601V-113.9Z" fill="white"/>
</mask>
<g mask="url(#mask0_396_839)">
<path d="M75.8023 39.2996C75.8023 59.2996 59.6023 75.4996 39.6023 75.4996C19.6023 75.4996 3.40234 59.2996 3.40234 39.2996C3.40234 19.2996 19.6023 3.09961 39.6023 3.09961C59.6023 3.09961 75.8023 19.2996 75.8023 39.2996Z" fill="#0078BF"/>
</g>
<mask id="mask1_396_839" style="mask-type:luminance" maskUnits="userSpaceOnUse" x="-124" y="-114" width="596" height="842">
<path d="M471.601 -113.9H-123.699V728H471.601V-113.9Z" fill="white"/>
</mask>
<g mask="url(#mask1_396_839)">
<path d="M104.801 87.2992H99.0008V60.3992H102.601C103.501 60.3992 104.201 59.8992 104.501 59.0992C104.801 58.2992 104.601 57.3992 104.001 56.7992L95.4008 48.7992V40.4992C95.4008 39.3992 94.5008 38.3992 93.3008 38.3992H91.1008C90.5008 38.3992 89.9008 38.6992 89.5008 39.0992L87.5008 41.3992L79.7008 34.0992C79.3008 33.6992 78.8008 33.4992 78.3008 33.4992V27.6992C80.3008 27.6992 82.2008 28.4992 83.7008 29.7992L87.5008 33.2992C88.6008 32.6992 89.9008 32.3992 91.1008 32.3992H93.3008C97.7008 32.3992 101.201 35.8992 101.201 40.2992V46.0992L107.901 52.2992C110.301 54.4992 111.101 57.8992 109.901 60.9992C109.001 63.2992 107.101 64.9992 104.801 65.6992V87.2992Z" fill="#0078BF"/>
</g>
<mask id="mask2_396_839" style="mask-type:luminance" maskUnits="userSpaceOnUse" x="-124" y="-114" width="596" height="842">
<path d="M471.601 -113.9H-123.699V728H471.601V-113.9Z" fill="white"/>
</mask>
<g mask="url(#mask2_396_839)">
<path d="M56.3995 87.3004H50.5995V65.9004C48.2995 65.2004 46.4995 63.5004 45.5995 61.2004C44.3995 58.1004 45.2995 54.7004 47.6995 52.5004L72.9995 29.9004C74.3995 28.6004 76.2995 27.9004 78.2995 27.9004V33.7004C77.7995 33.7004 77.2995 33.9004 76.8995 34.2004L51.5995 56.8004C50.8995 57.4004 50.6995 58.3004 50.9995 59.1004C51.2995 59.9004 52.0995 60.4004 52.8995 60.4004H56.2995V87.3004H56.3995Z" fill="#0078BF"/>
</g>
<mask id="mask3_396_839" style="mask-type:luminance" maskUnits="userSpaceOnUse" x="-124" y="-114" width="596" height="842">
<path d="M471.601 -113.9H-123.699V728H471.601V-113.9Z" fill="white"/>
</mask>
<g mask="url(#mask3_396_839)">
<path fill-rule="evenodd" clip-rule="evenodd" d="M38.8008 26.4C39.2008 26.4 39.4008 26.2 39.5008 25.9L42.7008 18.5C42.8008 18.2 43.1008 18 43.4008 18H51.0008C51.3008 18 51.5008 18.1 51.7008 18.4C51.8008 18.7 51.8008 18.9 51.7008 19.2L49.6008 22.7C49.5008 22.8 49.5008 23 49.5008 23.1C49.5008 23.5 49.9008 23.9 50.3008 23.9H52.4008C52.7008 23.9 52.9008 24 53.1008 24.3C53.2008 24.5 53.3008 24.8 53.1008 25.1C53.0008 25.4 53.0008 25.5 53.0008 25.6C53.0008 26 53.4008 26.4 53.8008 26.4H57.7008C57.8008 26.4 58.0008 26.4 58.1008 26.3C59.3008 25.6 60.2008 24.5 60.9008 23.3C61.6008 22.1 61.9008 20.8 61.9008 19.4C61.9008 17.2 61.0008 15.2 59.5008 13.6C58.0008 12.1 55.9008 11.2 53.7008 11.2C53.4008 11.2 53.1008 11.2 52.8008 11.2C52.5008 11.2 52.3008 11.1 52.1008 10.9C51.2008 9.9 50.2008 9.1 49.1008 8.6C47.7008 7.9 46.1008 7.5 44.5008 7.5C42.1008 7.5 39.7008 8.4 37.9008 10C36.3008 11.4 35.2008 13.2 34.7008 15.2C34.6008 15.5 34.4008 15.7 34.2008 15.8C33.1008 16.1 32.1008 16.7 31.4008 17.5C30.4008 18.6 29.8008 20 29.8008 21.5C29.8008 22.4 30.0008 23.3 30.4008 24.1C30.8008 24.9 31.3008 25.6 32.0008 26.1C32.1008 26.2 32.3008 26.3 32.5008 26.3H38.8008V26.4ZM43.9008 19.3H50.0008C50.1008 19.3 50.2008 19.4 50.2008 19.5C50.2008 19.6 50.2008 19.6 50.2008 19.6L46.9008 25.2H51.1008C51.2008 25.2 51.3008 25.3 51.3008 25.4C51.3008 25.5 51.3008 25.5 51.2008 25.6L42.6008 36.1C42.5008 36.2 42.4008 36.2 42.3008 36.1C42.2008 36 42.2008 35.9 42.2008 35.8L44.3008 27.9H40.2008C40.1008 27.9 40.0008 27.8 40.0008 27.7V27.6L43.6008 19.3C43.7008 19.3 43.8008 19.3 43.9008 19.3Z" fill="white"/>
</g>
<mask id="mask4_396_839" style="mask-type:luminance" maskUnits="userSpaceOnUse" x="-124" y="-114" width="596" height="842">
<path d="M471.601 -113.9H-123.699V728H471.601V-113.9Z" fill="white"/>
</mask>
<g mask="url(#mask4_396_839)">
<path d="M25.2023 57.2992C25.2023 56.7992 25.6023 56.2992 26.2023 56.2992C26.7023 56.2992 27.2023 56.6992 27.2023 57.2992C27.2023 58.3992 27.7023 59.4992 28.4023 60.1992C29.2023 60.9992 30.2023 61.3992 31.3023 61.3992C32.4023 61.3992 33.5023 60.8992 34.2023 60.1992C35.0023 59.3992 35.4023 58.3992 35.4023 57.2992C35.4023 56.1992 34.9023 55.0992 34.2023 54.3992C33.4023 53.5992 32.4023 53.1992 31.3023 53.1992H8.40234C7.90234 53.1992 7.40234 52.7992 7.40234 52.1992C7.40234 51.5992 7.80234 51.1992 8.40234 51.1992H31.3023C33.0023 51.1992 34.5023 51.8992 35.6023 52.9992C36.7023 54.0992 37.4023 55.5992 37.4023 57.2992C37.4023 58.9992 36.7023 60.4992 35.6023 61.5992C34.5023 62.6992 33.0023 63.3992 31.3023 63.3992C29.6023 63.3992 28.1023 62.6992 27.0023 61.5992C25.9023 60.4992 25.2023 58.9992 25.2023 57.2992Z" fill="white"/>
</g>
<mask id="mask5_396_839" style="mask-type:luminance" maskUnits="userSpaceOnUse" x="-124" y="-114" width="596" height="842">
<path d="M471.601 -113.9H-123.699V728H471.601V-113.9Z" fill="white"/>
</mask>
<g mask="url(#mask5_396_839)">
<path d="M33 43.8988C33 44.3988 32.6 44.8988 32 44.8988C31.5 44.8988 31 44.4988 31 43.8988C31 42.1988 31.7 40.6988 32.8 39.5988C33.9 38.4988 35.4 37.7988 37.1 37.7988C38.8 37.7988 40.3 38.4988 41.4 39.5988C42.5 40.6988 43.2 42.1988 43.2 43.8988C43.2 45.5988 42.5 47.0988 41.4 48.1988C40.3 49.2988 38.8 49.9988 37.1 49.9988H8.5C8 49.9988 7.5 49.5988 7.5 48.9988C7.5 48.4988 7.9 47.9988 8.5 47.9988H37.2C38.4 47.9988 39.4 47.4988 40.1 46.7988C40.9 45.9988 41.3 44.9988 41.3 43.8988C41.3 42.7988 40.8 41.6988 40.1 40.9988C39.3 40.1988 38.3 39.7988 37.2 39.7988C36.1 39.7988 35 40.2988 34.3 40.9988C33.4 41.6988 33 42.6988 33 43.8988Z" fill="white"/>
</g>
<mask id="mask6_396_839" style="mask-type:luminance" maskUnits="userSpaceOnUse" x="-124" y="-114" width="596" height="842">
<path d="M471.601 -113.9H-123.699V728H471.601V-113.9Z" fill="white"/>
</mask>
<g mask="url(#mask6_396_839)">
<path d="M18.1 42.5C18.1 43 17.7 43.5 17.1 43.5C16.6 43.5 16.1 43.1 16.1 42.5C16.1 41.3 16.6 40.1 17.4 39.3C18.2 38.5 19.3 38 20.6 38C21.8 38 23 38.5 23.8 39.3C24.6 40.1 25.1 41.2 25.1 42.5C25.1 43.7 24.6 44.9 23.8 45.7C23.8 45.7 23.8 45.7 23.7 45.8C22.9 46.6 21.8 47.1 20.6 47.1L8.5 47C8 47 7.5 46.6 7.5 46C7.5 45.5 7.9 45 8.5 45H20.7C21.4 45 22 44.7 22.4 44.3C22.9 43.8 23.1 43.2 23.1 42.5C23.1 41.8 22.8 41.2 22.4 40.7C22 40.3 21.3 40 20.6 40C19.9 40 19.3 40.3 18.8 40.7C18.4 41.2 18.1 41.9 18.1 42.5Z" fill="white"/>
</g>
<mask id="mask7_396_839" style="mask-type:luminance" maskUnits="userSpaceOnUse" x="3" y="3" width="73" height="73">
<path d="M3.39844 39.2996C3.39844 59.2996 19.5984 75.4996 39.5984 75.4996C59.5984 75.4996 75.7984 59.2996 75.7984 39.2996C75.7984 19.2996 59.5984 3.09961 39.5984 3.09961C19.5984 3.09961 3.39844 19.2996 3.39844 39.2996Z" fill="white"/>
</mask>
<g mask="url(#mask7_396_839)">
<path d="M56.3995 87.3004H50.5995V65.9004C48.2995 65.2004 46.4995 63.5004 45.5995 61.2004C44.3995 58.1004 45.2995 54.7004 47.6995 52.5004L72.9995 29.9004C74.3995 28.6004 76.2995 27.9004 78.2995 27.9004V33.7004C77.7995 33.7004 77.2995 33.9004 76.8995 34.2004L51.5995 56.8004C50.8995 57.4004 50.6995 58.3004 50.9995 59.1004C51.2995 59.9004 52.0995 60.4004 52.8995 60.4004H56.2995V87.3004H56.3995Z" fill="white"/>
</g>
</g>
<defs>
<clipPath id="clip0_396_839">
<rect width="110.7" height="90.7" fill="white"/>
</clipPath>
</defs>
</svg>
