<svg width="111" height="91" viewBox="0 0 111 91" fill="none" xmlns="http://www.w3.org/2000/svg">
<g clip-path="url(#clip0_396_1057)">
<mask id="mask0_396_1057" style="mask-type:luminance" maskUnits="userSpaceOnUse" x="-125" y="-364" width="596" height="842">
<path d="M470.601 -363.9H-124.699V478H470.601V-363.9Z" fill="white"/>
</mask>
<g mask="url(#mask0_396_1057)">
<path d="M74.8023 40.2996C74.8023 60.2996 58.6023 76.4996 38.6023 76.4996C18.6023 76.4996 2.40234 60.2996 2.40234 40.2996C2.40234 20.2996 18.6023 4.09961 38.6023 4.09961C58.6023 4.09961 74.8023 20.2996 74.8023 40.2996Z" fill="#0078BF"/>
</g>
<mask id="mask1_396_1057" style="mask-type:luminance" maskUnits="userSpaceOnUse" x="-125" y="-364" width="596" height="842">
<path d="M470.601 -363.9H-124.699V478H470.601V-363.9Z" fill="white"/>
</mask>
<g mask="url(#mask1_396_1057)">
<path d="M103.801 88.2988H98.0008V61.4988H101.601C102.501 61.4988 103.201 60.9988 103.501 60.1988C103.801 59.3988 103.601 58.4988 103.001 57.8988L94.4008 49.8988V41.5988C94.4008 40.4988 93.5008 39.4988 92.3008 39.4988H90.1008C89.5008 39.4988 88.9008 39.7988 88.5008 40.1988L86.5008 42.4988L78.7008 35.1988C78.3008 34.7988 77.8008 34.5988 77.3008 34.5988V28.7988C79.3008 28.7988 81.2008 29.4988 82.7008 30.8988L86.5008 34.3988C87.6008 33.7988 88.9008 33.4988 90.1008 33.4988H92.3008C96.7008 33.4988 100.201 36.9988 100.201 41.3988V47.1988L106.901 53.3988C109.301 55.5988 110.101 58.9988 108.901 62.0988C108.001 64.3988 106.101 66.0988 103.801 66.7988V88.2988Z" fill="#0078BF"/>
</g>
<mask id="mask2_396_1057" style="mask-type:luminance" maskUnits="userSpaceOnUse" x="-125" y="-364" width="596" height="842">
<path d="M470.601 -363.9H-124.699V478H470.601V-363.9Z" fill="white"/>
</mask>
<g mask="url(#mask2_396_1057)">
<path d="M55.3995 88.3004H49.5995V66.9004C47.2995 66.2004 45.4995 64.5004 44.5995 62.2004C43.3995 59.1004 44.2995 55.7004 46.6995 53.5004L71.9995 30.9004C73.4995 29.6004 75.2995 28.9004 77.2995 28.9004V34.7004C76.7995 34.7004 76.2995 34.9004 75.8995 35.2004L50.5995 57.8004C49.8995 58.4004 49.6995 59.3004 49.9995 60.1004C50.2995 60.9004 51.0995 61.4004 51.8995 61.4004H55.2995V88.3004H55.3995Z" fill="#0078BF"/>
</g>
<mask id="mask3_396_1057" style="mask-type:luminance" maskUnits="userSpaceOnUse" x="2" y="4" width="73" height="73">
<path d="M2.39844 40.2996C2.39844 60.2996 18.5984 76.4996 38.5984 76.4996C58.5984 76.4996 74.7984 60.2996 74.7984 40.2996C74.7984 20.2996 58.5984 4.09961 38.5984 4.09961C18.5984 4.09961 2.39844 20.2996 2.39844 40.2996Z" fill="white"/>
</mask>
<g mask="url(#mask3_396_1057)">
<path d="M55.3995 88.3004H49.5995V66.9004C47.2995 66.2004 45.4995 64.5004 44.5995 62.2004C43.3995 59.1004 44.2995 55.7004 46.6995 53.5004L71.9995 30.9004C73.4995 29.6004 75.2995 28.9004 77.2995 28.9004V34.7004C76.7995 34.7004 76.2995 34.9004 75.8995 35.2004L50.5995 57.8004C49.8995 58.4004 49.6995 59.3004 49.9995 60.1004C50.2995 60.9004 51.0995 61.4004 51.8995 61.4004H55.2995V88.3004H55.3995Z" fill="white"/>
</g>
<mask id="mask4_396_1057" style="mask-type:luminance" maskUnits="userSpaceOnUse" x="-125" y="-364" width="596" height="842">
<path d="M470.601 -363.9H-124.699V478H470.601V-363.9Z" fill="white"/>
</mask>
<g mask="url(#mask4_396_1057)">
<path fill-rule="evenodd" clip-rule="evenodd" d="M31.7995 22.6004V20.9004H30.9995C30.5995 20.9004 30.1995 20.5004 30.1995 20.1004V16.7004C30.1995 16.3004 30.5995 15.9004 30.9995 15.9004H38.1995C38.5995 15.9004 38.9995 16.3004 38.9995 16.7004V20.0004C38.9995 20.4004 38.5995 20.8004 38.1995 20.8004H37.3995V22.6004C37.3995 22.7004 37.3995 22.7004 37.2995 22.8004C37.1995 22.8004 37.1995 22.9004 37.0995 22.8004C36.1995 22.6004 35.2995 22.6004 34.3995 22.6004C33.5995 22.6004 32.7995 22.7004 32.0995 22.8004C31.9995 22.8004 31.9995 22.8004 31.8995 22.7004L31.7995 22.6004ZM43.2995 25.2004L45.5995 23.0004C45.8995 22.7004 46.2995 22.8004 46.5995 23.1004L48.6995 25.4004C48.9995 25.7004 48.9995 26.1004 48.6995 26.4004L46.4995 28.5004C46.4995 28.5004 46.3995 28.6004 46.2995 28.6004C46.1995 28.6004 46.1995 28.6004 46.0995 28.5004C45.2995 27.4004 44.2995 26.5004 43.1995 25.6004C43.0995 25.6004 43.0995 25.5004 43.0995 25.4004C43.1995 25.3004 43.1995 25.3004 43.2995 25.2004ZM22.2995 28.4004L20.0995 26.3004C19.7995 26.0004 19.8995 25.6004 20.0995 25.3004L22.1995 23.0004C22.4995 22.7004 22.8995 22.6004 23.1995 22.9004L25.4995 25.1004C25.4995 25.1004 25.5995 25.2004 25.5995 25.3004C25.5995 25.4004 25.5995 25.4004 25.4995 25.5004C24.3995 26.3004 23.3995 27.3004 22.5995 28.4004C22.5995 28.5004 22.4995 28.5004 22.3995 28.5004C22.2995 28.5004 22.3995 28.5004 22.2995 28.4004ZM34.3995 51.3004C26.7995 51.3004 20.5995 45.1004 20.5995 37.5004C20.5995 29.9004 26.7995 23.7004 34.3995 23.7004C41.9995 23.7004 48.1995 29.9004 48.1995 37.5004C48.1995 45.1004 41.9995 51.3004 34.3995 51.3004ZM34.3995 47.8004C40.0995 47.8004 44.6995 43.2004 44.6995 37.5004C44.6995 31.8004 40.0995 27.2004 34.3995 27.2004C28.6995 27.2004 24.0995 31.8004 24.0995 37.5004C24.0995 43.2004 28.6995 47.8004 34.3995 47.8004ZM34.3995 37.4004V29.2004C34.3995 29.1004 34.3995 29.1004 34.4995 29.0004C34.4995 29.0004 34.5995 28.9004 34.6995 28.9004C39.2995 29.0004 42.9995 32.8004 42.9995 37.4004C42.9995 39.2004 42.3995 41.0004 41.2995 42.5004L41.1995 42.6004C41.0995 42.6004 41.0995 42.6004 40.9995 42.6004L34.5995 37.6004C34.4995 37.5004 34.3995 37.5004 34.3995 37.4004Z" fill="white"/>
</g>
</g>
<defs>
<clipPath id="clip0_396_1057">
<rect width="110.7" height="90.7" fill="white"/>
</clipPath>
</defs>
</svg>
