<svg width="131" height="40" viewBox="0 0 131 40" fill="none" xmlns="http://www.w3.org/2000/svg">
<path d="M12.6546 13.5902V12.7657C9.90401 12.7657 6.99993 13.3535 6.99993 16.5963C6.99993 18.2392 7.85095 19.3514 9.31013 19.3514C10.3816 19.3514 11.3387 18.6943 11.9428 17.6249C12.6922 16.3086 12.6546 15.0718 12.6546 13.5902ZM16.4909 22.8616C16.2395 23.0861 15.8756 23.1025 15.592 22.9535C14.3295 21.9045 14.1048 21.4167 13.4093 20.4167C11.3224 22.5474 9.84482 23.1841 7.1387 23.1841C3.9387 23.1841 1.44482 21.2086 1.44482 17.2555C1.44482 14.1678 3.12033 12.0657 5.50197 11.0371C7.56727 10.129 10.4509 9.96776 12.6546 9.71674V9.22491C12.6546 8.31878 12.724 7.24939 12.1946 6.46776C11.7285 5.76776 10.8407 5.47797 10.0591 5.47797C8.61013 5.47797 7.31421 6.22286 6.99993 7.76368C6.93462 8.10654 6.6836 8.44327 6.34074 8.4596L2.64891 8.06368C2.3387 7.99429 1.99584 7.74123 2.08156 7.26572C2.93258 2.79225 6.9734 1.44531 10.5897 1.44531C12.4407 1.44531 14.8591 1.93715 16.3197 3.33919C18.1707 5.06572 17.9944 7.37184 17.9944 9.88205V15.8106C17.9944 17.5923 18.7328 18.3739 19.4283 19.3371C19.6742 19.678 19.7277 20.0902 19.4181 20.3474C18.6422 20.9943 17.2618 22.1984 16.5018 22.8718H16.4916M62.5263 13.5902V12.7657C59.7691 12.7657 56.865 13.3535 56.865 16.5963C56.865 18.2392 57.7201 19.3514 59.1814 19.3514C60.2467 19.3514 61.2099 18.6943 61.814 17.6249C62.563 16.3086 62.5263 15.0718 62.5263 13.5902ZM66.3609 22.8616C66.1099 23.0861 65.7467 23.1025 65.463 22.9535C64.1997 21.9045 63.9691 21.4167 63.2793 20.4167C61.1936 22.5474 59.712 23.1841 57.0099 23.1841C53.8038 23.1841 51.316 21.2086 51.316 17.2555C51.316 14.1678 52.9854 12.0657 55.3712 11.0371C57.4365 10.129 60.3201 9.96776 62.5263 9.71674V9.22491C62.5263 8.31878 62.5956 7.24939 62.0589 6.46776C61.5997 5.76776 60.712 5.47797 59.9242 5.47797C58.4752 5.47797 57.1854 6.22286 56.8691 7.76368C56.8058 8.10654 56.5548 8.44327 56.2058 8.4596L52.5201 8.06368C52.2099 7.99429 51.8609 7.74123 51.9528 7.26572C52.7977 2.79225 56.8426 1.44531 60.4609 1.44531C62.312 1.44531 64.7303 1.93715 66.1895 3.33919C68.0426 5.06572 67.865 7.37184 67.865 9.88205V15.8106C67.865 17.5923 68.6038 18.3739 69.2997 19.3371C69.5405 19.678 69.5936 20.0902 69.2793 20.3474C68.5038 20.9943 67.1222 22.1984 66.363 22.8718M113.21 22.9147H109.422C109.041 22.8882 108.736 22.5841 108.736 22.2086V2.68001C108.769 2.32286 109.085 2.04327 109.471 2.04327H112.996C113.328 2.06368 113.602 2.28409 113.675 2.59021V5.57592H113.745C114.81 2.9045 116.302 1.63103 118.93 1.63103C120.636 1.63103 122.3 2.24735 123.371 3.93307C124.365 5.49429 124.365 8.12082 124.365 10.0106V22.3004C124.322 22.6433 124.008 22.9147 123.632 22.9147H119.818C119.471 22.8882 119.181 22.631 119.145 22.3004V11.6963C119.145 9.56164 119.39 6.43715 116.763 6.43715C115.836 6.43715 114.987 7.05756 114.563 7.99837C114.028 9.19225 113.959 10.38 113.959 11.6963V22.2086C113.959 22.6004 113.622 22.9147 113.216 22.9147M97.1897 1.63103C102.835 1.63103 105.89 6.48001 105.89 12.6433C105.89 18.5984 102.514 23.3229 97.1897 23.3229C91.6469 23.3229 88.6305 18.4739 88.6305 12.4351C88.6305 6.35552 91.6856 1.63103 97.1897 1.63103ZM97.2224 5.61878C94.4183 5.61878 94.2428 9.43715 94.2428 11.8188C94.2428 14.2045 94.2061 19.2984 97.1897 19.2984C100.139 19.2984 100.277 15.1902 100.277 12.6861C100.277 11.0371 100.208 9.0698 99.7101 7.50654C99.2836 6.14735 98.4326 5.61878 97.2224 5.61878ZM26.8816 22.9147H23.0775C22.7142 22.8882 22.4244 22.6167 22.3979 22.2678V2.74531C22.3979 2.35348 22.7244 2.04327 23.1305 2.04327H26.6775C27.0469 2.06368 27.3407 2.34327 27.3673 2.69633V5.24939H27.4367C28.3632 2.78205 30.102 1.63103 32.4448 1.63103C34.8265 1.63103 36.3142 2.78205 37.3836 5.24939C38.304 2.78205 40.3958 1.63103 42.6387 1.63103C44.2326 1.63103 45.9775 2.29021 47.0407 3.76572C48.2448 5.40858 47.9999 7.79633 47.9999 9.88817V22.2086C47.9999 22.6004 47.6734 22.9147 47.2652 22.9147H43.4673C43.0877 22.8882 42.7816 22.5841 42.7816 22.2086V11.8616C42.7816 11.0371 42.8571 8.98409 42.6754 8.20246C42.3918 6.89021 41.5407 6.52286 40.4387 6.52286C39.5183 6.52286 38.555 7.13715 38.1652 8.12082C37.7754 9.10654 37.8122 10.7535 37.8122 11.8616V22.2086C37.8122 22.6004 37.4856 22.9147 37.0795 22.9147H33.2816C32.8958 22.8882 32.5958 22.5841 32.5958 22.2086V11.8616C32.5958 9.68409 32.953 6.48001 30.2509 6.48001C27.5183 6.48001 27.6244 9.6045 27.6244 11.8616V22.2086C27.6244 22.6004 27.2979 22.9147 26.8918 22.9147M72.4938 5.49021V2.69633C72.4938 2.27388 72.8142 1.99021 73.1999 1.99021H85.704C86.104 1.99021 86.4265 2.28001 86.4265 2.69633V5.08817C86.4265 5.49021 86.0836 6.0147 85.4836 6.84327L79.004 16.0943C81.4122 16.0351 83.953 16.3943 86.1367 17.6249C86.6285 17.9025 86.7632 18.3086 86.7999 18.7106V21.6902C86.7999 22.0963 86.3509 22.5739 85.8795 22.3269C82.0326 20.3106 76.9224 20.0902 72.6693 22.3494C72.2367 22.5841 71.7816 22.1127 71.7816 21.7065V18.8759C71.7816 18.4208 71.7816 17.6453 72.2428 16.9555L79.7489 6.19021H73.2163C72.8142 6.19021 72.4938 5.90654 72.4938 5.49021ZM80.6693 27.0147C79.7591 25.8474 74.6326 26.4637 72.3326 26.7351C71.6326 26.8208 71.5244 26.2106 72.1571 25.7718C76.2387 22.9004 82.9367 23.729 83.7183 24.6923C84.4999 25.6596 83.5142 32.3759 79.6795 35.58C79.0897 36.0718 78.5285 35.8106 78.7897 35.1576C79.653 33.0065 81.5836 28.1861 80.6693 27.0147ZM77.6999 30.4106C78.8816 29.5331 77.8714 28.229 76.6612 28.7412C68.6571 32.1392 59.953 33.7759 52.0387 33.7759C40.306 33.7759 28.9469 30.5616 19.7599 25.2167C18.9575 24.7453 18.3579 25.5698 19.0273 26.1739C27.5387 33.8616 38.7918 38.4861 51.2897 38.4861C60.204 38.4861 70.5571 35.6759 77.6999 30.4106Z" fill="black"/>
</svg>
