<svg width="140" height="40" viewBox="0 0 140 40" fill="none" xmlns="http://www.w3.org/2000/svg">
<g clip-path="url(#clip0_1_618)">
<path d="M29.7954 14.1669H15.6495V18.3336H25.6742C25.1729 24.2224 20.272 26.7224 15.6495 26.7224C9.74615 26.7224 4.56677 22.0558 4.56677 15.5558C4.56677 9.22244 9.46769 4.33355 15.6495 4.33355C20.3834 4.33355 23.2237 7.33355 23.2237 7.33355L26.1754 4.27799C26.1754 4.27799 22.3883 0.111328 15.5382 0.111328C6.79446 0.166884 0 7.55577 0 15.5002C0 23.3336 6.34892 30.9447 15.7609 30.9447C24.0034 30.9447 30.0738 25.278 30.0738 16.9447C30.0738 15.1669 29.7954 14.1669 29.7954 14.1669ZM41.3794 11.1669C35.5874 11.1669 31.4105 15.6669 31.4105 21.0002C31.4105 26.3336 35.4203 30.9447 41.4351 30.9447C46.8372 30.9447 51.2926 26.778 51.2926 21.1113C51.3483 14.5002 46.1689 11.1669 41.3794 11.1669ZM41.4351 15.0558C44.2754 15.0558 47.0043 17.3336 47.0043 21.0558C47.0043 24.6669 44.3311 27.0558 41.4351 27.0558C38.2606 27.0558 35.7545 24.5558 35.7545 21.0558C35.7545 17.6113 38.2606 15.0558 41.4351 15.0558ZM63.0437 11.1669C57.2517 11.1669 53.0748 15.6669 53.0748 21.0002C53.0748 26.3336 57.0846 30.9447 63.0994 30.9447C68.5015 30.9447 72.9569 26.778 72.9569 21.1113C73.0126 14.5002 67.8332 11.1669 63.0437 11.1669ZM63.0994 15.0558C65.9397 15.0558 68.6686 17.3336 68.6686 21.0558C68.6686 24.6669 65.9954 27.0558 63.0994 27.0558C59.9249 27.0558 57.4188 24.5558 57.4188 21.0558C57.4745 17.6113 59.9249 15.0558 63.0994 15.0558ZM84.3182 11.1669C78.9717 11.1669 74.7948 15.8336 74.7948 21.0558C74.7948 27.0002 79.64 30.9447 84.2068 30.9447C87.0471 30.9447 88.5508 29.8336 89.6646 28.5558V30.5002C89.6646 33.8891 87.604 35.9447 84.4295 35.9447C81.4222 35.9447 79.8628 33.7224 79.3615 32.4447L75.5745 34.0558C76.9111 36.8891 79.64 39.8891 84.4852 39.8891C89.776 39.8891 93.8415 36.5558 93.8415 29.5558V11.778H89.6646V13.4447C88.3837 12.0558 86.6572 11.1669 84.3182 11.1669ZM84.708 15.0558C87.3255 15.0558 89.9988 17.278 89.9988 21.0558C89.9988 24.9447 87.3255 27.0558 84.6523 27.0558C81.812 27.0558 79.1945 24.778 79.1945 21.1113C79.1388 17.278 81.9234 15.0558 84.708 15.0558ZM112.276 11.1113C107.263 11.1113 103.031 15.1113 103.031 21.0002C103.031 27.2224 107.709 30.9447 112.777 30.9447C116.954 30.9447 119.571 28.6669 121.075 26.6113L117.622 24.3336C116.731 25.7224 115.227 27.0558 112.777 27.0558C109.992 27.0558 108.711 25.5558 107.932 24.0558L121.242 18.5558L120.574 16.9447C119.237 13.778 116.23 11.1113 112.276 11.1113ZM112.443 14.9447C114.281 14.9447 115.562 15.8891 116.118 17.0558L107.263 20.778C106.874 17.8891 109.602 14.9447 112.443 14.9447ZM96.7375 30.3336H101.082V1.22244H96.7375V30.3336ZM139.231 15.6669H133.884V10.3336H129.54V15.6669H124.194V20.0002H129.54V25.3336H133.884V20.0002H139.231V15.6669Z" fill="black"/>
</g>
<defs>
<clipPath id="clip0_1_618">
<rect width="139.231" height="40" fill="white"/>
</clipPath>
</defs>
</svg>
