<svg width="160" height="40" viewBox="0 0 160 40" fill="none" xmlns="http://www.w3.org/2000/svg">
<g clip-path="url(#clip0_1_626)">
<path d="M1.0625 5.91269H7.2375V28.3877H18.6625V34.0877H1.0625V5.91269ZM21.3875 15.0002H27.3125V34.0752H21.3875V15.0002ZM24.35 5.5127C25.0299 5.5127 25.6945 5.7143 26.2598 6.09202C26.8251 6.46974 27.2657 7.0066 27.5258 7.63472C27.786 8.26284 27.8541 8.95401 27.7214 9.62082C27.5888 10.2876 27.2614 10.9001 26.7807 11.3809C26.2999 11.8616 25.6874 12.189 25.0206 12.3216C24.3538 12.4543 23.6626 12.3862 23.0345 12.126C22.4064 11.8659 21.8695 11.4253 21.4918 10.86C21.1141 10.2947 20.9125 9.63007 20.9125 8.9502C20.9125 8.03851 21.2747 7.16417 21.9193 6.51952C22.564 5.87486 23.4383 5.5127 24.35 5.5127ZM52.1125 5.91269H58.0375V22.7502L64.7625 14.9752H72.025L64.25 23.8127L71.8625 34.0877H64.4125L58.1125 24.6502H58.0375V34.0877H52.1125V5.91269ZM30.6 15.0002H36.25V17.6127H36.325C36.8949 16.6396 37.7175 15.8388 38.7056 15.2953C39.6937 14.7517 40.8105 14.4856 41.9375 14.5252C47.95 14.5252 49.05 18.4752 49.05 23.6127V34.0877H43.175V24.8002C43.175 22.5877 43.175 19.8002 40.0875 19.8002C37 19.8002 36.525 22.2127 36.525 24.7002V34.1377H30.6V15.0002Z" fill="black"/>
<path d="M84.5128 22.3121C84.5248 21.8311 84.4389 21.3528 84.2604 20.906C84.0818 20.4593 83.8143 20.0535 83.4741 19.7133C83.1339 19.3731 82.7281 19.1056 82.2814 18.927C81.8346 18.7485 81.3562 18.6626 80.8753 18.6746C79.8394 18.6091 78.8193 18.954 78.0357 19.6347C77.252 20.3154 76.7678 21.2772 76.6878 22.3121H84.5128ZM89.5128 30.7746C88.5239 31.9597 87.2845 32.9107 85.8839 33.5592C84.4832 34.2076 82.9562 34.5373 81.4128 34.5246C75.4878 34.5246 70.7378 30.5746 70.7378 24.4371C70.7378 18.2996 75.4878 14.3621 81.4128 14.3621C86.9503 14.3621 90.4253 18.3121 90.4253 24.4371V26.2996H76.6753C76.8386 27.3592 77.3811 28.3235 78.2019 29.0132C79.0226 29.7029 80.0659 30.0712 81.1378 30.0496C81.9821 30.0484 82.8124 29.8334 83.5512 29.4247C84.2899 29.0159 84.9132 28.4268 85.3628 27.7121L89.5128 30.7746ZM102.788 19.5996C101.82 19.5697 100.866 19.8294 100.047 20.3452C99.2276 20.861 98.5811 21.6096 98.1899 22.495C97.7988 23.3805 97.6808 24.3625 97.8512 25.3154C98.0215 26.2683 98.4724 27.1487 99.146 27.8438C99.8197 28.5389 100.686 29.0172 101.633 29.2173C102.58 29.4174 103.565 29.3302 104.462 28.967C105.36 28.6038 106.128 27.9811 106.669 27.1785C107.21 26.3759 107.5 25.4301 107.5 24.4621C107.553 23.8198 107.468 23.1735 107.249 22.5671C107.031 21.9607 106.685 21.4083 106.235 20.9473C105.784 20.4862 105.24 20.1273 104.639 19.8948C104.038 19.6623 103.394 19.5616 102.75 19.5996M113 34.0746H107.5V31.5746C106.813 32.491 105.925 33.2379 104.905 33.7579C103.884 34.278 102.758 34.5573 101.613 34.5746C95.9128 34.5746 92.1628 30.4621 92.1628 24.6496C92.1628 19.3121 95.4878 14.4121 100.913 14.4121C102.053 14.3119 103.201 14.4866 104.261 14.9216C105.32 15.3566 106.259 16.0392 107 16.9121H107.075V5.91211H113V34.0746Z" fill="black"/>
<path d="M155.75 -1.48229e-05H121.7C121.313 -0.00499756 120.93 0.0670734 120.571 0.211992C120.213 0.35691 119.886 0.571773 119.612 0.844049C119.337 1.11632 119.12 1.44056 118.972 1.79784C118.824 2.15512 118.748 2.53828 118.75 2.92499V37.1125C118.753 37.496 118.832 37.8752 118.982 38.2281C119.133 38.581 119.351 38.9008 119.625 39.1691C119.899 39.4374 120.224 39.6489 120.58 39.7915C120.936 39.9341 121.317 40.0049 121.7 40H155.75C156.137 40.0099 156.523 39.9429 156.884 39.8027C157.245 39.6625 157.575 39.452 157.854 39.1834C158.133 38.9147 158.356 38.5934 158.51 38.2379C158.663 37.8824 158.745 37.4998 158.75 37.1125V2.92499C158.75 2.53448 158.672 2.14789 158.52 1.78804C158.369 1.42818 158.147 1.10234 157.867 0.829725C157.587 0.55711 157.256 0.343244 156.892 0.200738C156.529 0.058233 156.14 -0.0100279 155.75 -1.48229e-05ZM130.6 34.0875H124.675V15H130.6V34.0875ZM127.638 12.4125C126.958 12.4125 126.293 12.2109 125.728 11.8332C125.162 11.4554 124.722 10.9186 124.462 10.2905C124.202 9.66234 124.133 8.97117 124.266 8.30436C124.399 7.63755 124.726 7.02505 125.207 6.5443C125.688 6.06356 126.3 5.73617 126.967 5.60354C127.634 5.4709 128.325 5.53897 128.953 5.79915C129.581 6.05933 130.118 6.49992 130.496 7.06521C130.873 7.63051 131.075 8.29511 131.075 8.97499C131.075 9.88667 130.713 10.761 130.068 11.4057C129.424 12.0503 128.549 12.4125 127.638 12.4125ZM152.8 34.0875H146.875V24.8125C146.875 22.6 146.875 19.8125 143.8 19.8125C140.725 19.8125 140.238 22.225 140.238 24.7125V34.15H134.313V15H140V17.625H140.075C140.647 16.6542 141.47 15.8559 142.458 15.3146C143.446 14.7733 144.562 14.5091 145.688 14.55C151.688 14.55 152.8 18.5 152.8 23.6375V34.0875Z" fill="black"/>
</g>
<defs>
<clipPath id="clip0_1_626">
<rect width="160" height="40" fill="white"/>
</clipPath>
</defs>
</svg>
