<svg width="160" height="40" viewBox="0 0 160 40" fill="none" xmlns="http://www.w3.org/2000/svg">
<g clip-path="url(#clip0_1_647)">
<path d="M1.0625 5.91269H7.2375V28.3877H18.6625V34.0877H1.0625V5.91269ZM21.3875 15.0002H27.3125V34.0752H21.3875V15.0002ZM24.35 5.5127C25.0299 5.5127 25.6945 5.7143 26.2598 6.09202C26.8251 6.46974 27.2657 7.0066 27.5258 7.63472C27.786 8.26284 27.8541 8.95401 27.7214 9.62082C27.5888 10.2876 27.2614 10.9001 26.7807 11.3809C26.2999 11.8616 25.6874 12.189 25.0206 12.3216C24.3538 12.4543 23.6626 12.3862 23.0345 12.126C22.4064 11.8659 21.8695 11.4253 21.4918 10.86C21.1141 10.2947 20.9125 9.63007 20.9125 8.9502C20.9125 8.03851 21.2747 7.16417 21.9193 6.51952C22.564 5.87486 23.4383 5.5127 24.35 5.5127ZM52.1125 5.91269H58.0375V22.7502L64.7625 14.9752H72.025L64.25 23.8127L71.8625 34.0877H64.4125L58.1125 24.6502H58.0375V34.0877H52.1125V5.91269ZM30.6 15.0002H36.25V17.6127H36.325C36.8949 16.6396 37.7175 15.8388 38.7056 15.2953C39.6937 14.7517 40.8105 14.4856 41.9375 14.5252C47.95 14.5252 49.05 18.4752 49.05 23.6127V34.0877H43.175V24.8002C43.175 22.5877 43.175 19.8002 40.0875 19.8002C37 19.8002 36.525 22.2127 36.525 24.7002V34.1377H30.6V15.0002Z" fill="black"/>
<path d="M84.5123 22.3121C84.5243 21.8311 84.4384 21.3528 84.2599 20.906C84.0813 20.4593 83.8138 20.0535 83.4736 19.7133C83.1334 19.3731 82.7276 19.1056 82.2809 18.927C81.8341 18.7485 81.3558 18.6626 80.8748 18.6746C79.8389 18.6091 78.8188 18.954 78.0352 19.6347C77.2516 20.3154 76.7674 21.2772 76.6873 22.3121H84.5123ZM89.5123 30.7746C88.5234 31.9597 87.284 32.9107 85.8834 33.5592C84.4827 34.2076 82.9557 34.5373 81.4123 34.5246C75.4873 34.5246 70.7373 30.5746 70.7373 24.4371C70.7373 18.2996 75.4873 14.3621 81.4123 14.3621C86.9498 14.3621 90.4248 18.3121 90.4248 24.4371V26.2996H76.6748C76.8381 27.3592 77.3806 28.3235 78.2014 29.0132C79.0221 29.7029 80.0654 30.0712 81.1373 30.0496C81.9816 30.0484 82.8119 29.8334 83.5507 29.4247C84.2895 29.0159 84.9127 28.4268 85.3623 27.7121L89.5123 30.7746ZM102.787 19.5996C101.82 19.5697 100.865 19.8294 100.046 20.3452C99.2271 20.861 98.5806 21.6096 98.1894 22.495C97.7983 23.3805 97.6803 24.3625 97.8507 25.3154C98.021 26.2683 98.4719 27.1487 99.1456 27.8438C99.8192 28.5389 100.685 29.0172 101.632 29.2173C102.579 29.4174 103.565 29.3302 104.462 28.967C105.359 28.6038 106.128 27.9811 106.669 27.1785C107.21 26.3759 107.499 25.4301 107.5 24.4621C107.553 23.8198 107.467 23.1735 107.249 22.5671C107.031 21.9607 106.684 21.4083 106.234 20.9473C105.784 20.4862 105.24 20.1273 104.638 19.8948C104.037 19.6623 103.393 19.5616 102.75 19.5996M113 34.0746H107.5V31.5746C106.813 32.491 105.925 33.2379 104.904 33.7579C103.884 34.278 102.758 34.5573 101.612 34.5746C95.9123 34.5746 92.1623 30.4621 92.1623 24.6496C92.1623 19.3121 95.4873 14.4121 100.912 14.4121C102.053 14.3119 103.201 14.4866 104.26 14.9216C105.319 15.3566 106.259 16.0392 107 16.9121H107.075V5.91211H113V34.0746Z" fill="black"/>
<path d="M155.75 -1.48229e-05H121.7C121.313 -0.00499756 120.93 0.0670734 120.571 0.211992C120.213 0.35691 119.886 0.571773 119.612 0.844049C119.337 1.11632 119.12 1.44056 118.972 1.79784C118.824 2.15512 118.748 2.53828 118.75 2.92499V37.1125C118.753 37.496 118.832 37.8752 118.982 38.2281C119.133 38.581 119.351 38.9008 119.625 39.1691C119.899 39.4374 120.224 39.6489 120.58 39.7915C120.936 39.9341 121.317 40.0049 121.7 40H155.75C156.137 40.0099 156.523 39.9429 156.884 39.8027C157.245 39.6625 157.575 39.452 157.854 39.1834C158.133 38.9147 158.356 38.5934 158.51 38.2379C158.663 37.8824 158.745 37.4998 158.75 37.1125V2.92499C158.75 2.53448 158.672 2.14789 158.52 1.78804C158.369 1.42818 158.147 1.10234 157.867 0.829725C157.587 0.55711 157.256 0.343244 156.892 0.200738C156.529 0.058233 156.14 -0.0100279 155.75 -1.48229e-05ZM130.6 34.0875H124.675V15H130.6V34.0875ZM127.638 12.4125C126.958 12.4125 126.293 12.2109 125.728 11.8332C125.162 11.4554 124.722 10.9186 124.462 10.2905C124.202 9.66234 124.133 8.97117 124.266 8.30436C124.399 7.63755 124.726 7.02505 125.207 6.5443C125.688 6.06356 126.3 5.73617 126.967 5.60354C127.634 5.4709 128.325 5.53897 128.953 5.79915C129.581 6.05933 130.118 6.49992 130.496 7.06521C130.873 7.63051 131.075 8.29511 131.075 8.97499C131.075 9.88667 130.713 10.761 130.068 11.4057C129.424 12.0503 128.549 12.4125 127.638 12.4125ZM152.8 34.0875H146.875V24.8125C146.875 22.6 146.875 19.8125 143.8 19.8125C140.725 19.8125 140.238 22.225 140.238 24.7125V34.15H134.313V15H140V17.625H140.075C140.647 16.6542 141.47 15.8559 142.458 15.3146C143.446 14.7733 144.562 14.5091 145.688 14.55C151.688 14.55 152.8 18.5 152.8 23.6375V34.0875Z" fill="black"/>
</g>
<defs>
<clipPath id="clip0_1_647">
<rect width="160" height="40" fill="white"/>
</clipPath>
</defs>
</svg>
