<svg width="120" height="40" viewBox="0 0 120 40" fill="none" xmlns="http://www.w3.org/2000/svg">
<path d="M29.4812 29.4369C25.7525 27.2833 22.1858 25.2236 18.6195 23.1631C16.9733 22.2119 15.3367 21.243 13.6761 20.3177C13.2076 20.0564 13.144 19.8397 13.3656 19.3388C14.9031 15.8617 16.3993 12.3663 17.9108 8.87771C18.1728 8.27352 18.3784 7.63089 19.2368 7.62025C20.0957 7.60961 20.309 8.22619 20.5768 8.8442C23.4413 15.4556 26.3099 22.0652 29.1826 28.6729C29.2644 28.8616 29.3328 29.0562 29.4812 29.4369ZM12.6467 20.9925C12.8662 20.4763 13.0424 20.399 13.5473 20.7055C15.2523 21.7408 16.9944 22.7154 18.8341 23.7776L9.18311 29.3594" fill="black"/>
<path d="M19.3216 37.6334C15.7838 37.6334 12.3254 36.5843 9.38383 34.6188C6.44224 32.6533 4.14956 29.8597 2.79569 26.5912C1.44183 23.3226 1.0876 19.7261 1.77779 16.2562C2.46799 12.7864 4.17161 9.59915 6.67322 7.09753C9.17483 4.59592 12.3621 2.8923 15.8319 2.20211C19.3017 1.51192 22.8983 1.86615 26.1668 3.22001C29.4354 4.57387 32.229 6.86656 34.1945 9.80814C36.16 12.7497 37.2091 16.2081 37.2091 19.7459C37.2091 22.0949 36.7464 24.4209 35.8475 26.5912C34.9486 28.7614 33.631 30.7333 31.97 32.3943C30.309 34.0553 28.3371 35.3729 26.1668 36.2718C23.9966 37.1707 21.6706 37.6334 19.3216 37.6334ZM19.3216 3.76437C16.1607 3.76437 13.0709 4.70167 10.4427 6.45775C7.81458 8.21382 5.76618 10.7098 4.55658 13.63C3.34697 16.5503 3.03049 19.7636 3.64714 22.8638C4.26379 25.9639 5.78588 28.8115 8.02094 31.0466C10.256 33.2816 13.1036 34.8037 16.2037 35.4204C19.3039 36.037 22.5172 35.7205 25.4375 34.5109C28.3577 33.3013 30.8537 31.2529 32.6098 28.6248C34.3658 25.9966 35.3031 22.9068 35.3031 19.7459C35.3031 15.5073 33.6194 11.4424 30.6222 8.44526C27.6251 5.44814 23.5602 3.76437 19.3216 3.76437Z" fill="black"/>
<path d="M55.6719 12.8382H59.7243V26.3163H57.1001V17.1997C57.1001 16.9377 57.1031 16.5705 57.1093 16.098C57.115 15.6258 57.118 15.2615 57.1182 15.0053L54.5642 26.3162H51.8269L49.2913 15.0053C49.2913 15.2613 49.2943 15.6256 49.3002 16.0981C49.3061 16.5703 49.3092 16.9375 49.3094 17.1997V26.3163H46.6855V12.8379H50.7834L53.2367 23.4357L55.6719 12.8382ZM68.6143 16.5514C69.3169 16.8689 69.9144 17.3802 70.3367 18.0253C70.7549 18.6429 71.0265 19.3478 71.1308 20.0863C71.2107 20.7424 71.2394 21.4038 71.2166 22.0644H63.958C63.9983 23.0642 64.3456 23.7651 65 24.1673C65.4333 24.4268 65.9319 24.5568 66.4368 24.5421C66.8441 24.5741 67.2515 24.482 67.6055 24.278C67.9594 24.074 68.2434 23.7676 68.4199 23.3992H71.0806C70.9605 24.0877 70.6218 24.7193 70.1146 25.2003C69.2218 26.1696 67.9719 26.6544 66.365 26.6546C65.087 26.6715 63.844 26.2373 62.8545 25.4284C61.8405 24.6105 61.3335 23.2804 61.3335 21.4379C61.3335 19.7116 61.7912 18.3877 62.7065 17.4662C63.1744 17.0042 63.7321 16.6432 64.3452 16.4055C64.9582 16.1679 65.6136 16.0586 66.2706 16.0844C67.0761 16.0718 67.8751 16.231 68.6143 16.5514ZM64.716 18.8023C64.3256 19.2293 64.0823 19.7701 64.0216 20.3455H68.5114C68.5089 20.0495 68.4461 19.7572 68.3267 19.4864C68.2073 19.2155 68.0338 18.972 67.817 18.7705C67.3859 18.4066 66.8354 18.2151 66.2716 18.2331C65.987 18.2156 65.702 18.2571 65.4343 18.3551C65.1666 18.453 64.922 18.6053 64.716 18.8023ZM71.5104 18.2969V16.4411H72.9002V13.6613H75.479V16.4408H77.0971V18.2969H75.479V23.5637C75.4432 23.8285 75.4979 24.0976 75.6343 24.3274C75.7381 24.4277 76.0551 24.4779 76.5854 24.4779C76.6645 24.4779 76.7483 24.477 76.8367 24.4738C76.925 24.4706 77.0118 24.466 77.0971 24.4598V26.4077L75.863 26.4532C74.6316 26.4955 73.7903 26.2823 73.3392 25.8134C73.0168 25.4288 72.8591 24.9326 72.9002 24.4325V18.2969L71.5104 18.2969ZM82.7182 20.254C83.0735 20.2232 83.4233 20.1464 83.7588 20.0253C83.9193 19.9779 84.0604 19.8805 84.1616 19.7472C84.2627 19.6139 84.3186 19.4518 84.3211 19.2845C84.3381 19.117 84.3065 18.9481 84.23 18.7981C84.1535 18.6481 84.0353 18.5234 83.8897 18.4389C83.4926 18.2611 83.0588 18.1811 82.6244 18.2054C82.0006 18.2054 81.5588 18.3579 81.2992 18.6629C81.0966 18.9294 80.9687 19.2451 80.9285 19.5774H78.4139C78.4348 18.8031 78.6911 18.0535 79.1486 17.4284C79.8405 16.5506 81.0282 16.1117 82.7118 16.1117C83.723 16.0927 84.7242 16.3153 85.6321 16.761C86.483 17.1939 86.9084 18.0107 86.9084 19.2115V23.7832C86.9084 24.1003 86.9145 24.4843 86.9265 24.9354C86.9198 25.1763 86.9733 25.4151 87.0822 25.6301C87.1811 25.7631 87.3137 25.8673 87.4662 25.9319V26.3163H84.6318C84.5577 26.1334 84.5024 25.9434 84.4669 25.7492C84.4366 25.5724 84.4123 25.3712 84.3938 25.1457C84.0289 25.5385 83.6073 25.8745 83.1429 26.1425C82.5595 26.4705 81.8994 26.6376 81.2302 26.6269C80.4107 26.6578 79.609 26.3824 78.9815 25.8544C78.68 25.5784 78.4438 25.2386 78.2903 24.8597C78.1367 24.4809 78.0697 24.0725 78.094 23.6644C78.094 22.4391 78.5699 21.5522 79.5219 21.0037C80.2423 20.647 81.0237 20.4297 81.8249 20.3633L82.7182 20.254ZM84.3115 21.47C84.1516 21.5701 83.9824 21.6544 83.8061 21.7216C83.5784 21.8006 83.3444 21.8601 83.1067 21.8995L82.5133 22.0094C82.0975 22.0633 81.6931 22.1837 81.3157 22.3661C81.1194 22.4739 80.9575 22.6349 80.8486 22.8305C80.7397 23.0262 80.6882 23.2486 80.7 23.4722C80.6834 23.6512 80.7087 23.8315 80.7739 23.999C80.8392 24.1665 80.9425 24.3164 81.0758 24.437C81.3373 24.6388 81.6606 24.7439 81.9907 24.7343C82.5536 24.7362 83.1033 24.5636 83.5641 24.2403C84.0438 23.9112 84.2929 23.3109 84.3115 22.4392L84.3115 21.47ZM91.8462 26.3163H89.2398V12.8379H91.8462V26.3163ZM94.5984 12.8382H97.4148V23.8928H104.144V26.3163H94.5987L94.5984 12.8382ZM116.089 14.2737C116.511 14.8756 116.727 15.5969 116.708 16.3312C116.743 17.0459 116.522 17.7495 116.084 18.3153C115.796 18.6377 115.446 18.8989 115.056 19.0835C115.693 19.2946 116.241 19.7131 116.613 20.2721C116.977 20.8651 117.159 21.5516 117.138 22.247C117.149 23.0062 116.941 23.7525 116.538 24.396C116.27 24.8433 115.911 25.2292 115.484 25.5285C115.057 25.8278 114.572 26.0337 114.06 26.133C113.433 26.2593 112.795 26.3207 112.156 26.3163H106.083V12.8379H112.596C114.24 12.8627 115.404 13.3413 116.089 14.2737ZM108.771 15.1791V18.1505H112.047C112.544 18.1722 113.037 18.0568 113.472 17.8169C113.662 17.6873 113.813 17.5088 113.909 17.3004C114.005 17.092 114.044 16.8614 114.02 16.633C114.02 16.0051 113.778 15.5906 113.296 15.3894C112.779 15.2351 112.242 15.1641 111.703 15.1791L108.771 15.1791ZM108.771 20.3817V23.9751H112.043C112.51 23.9973 112.976 23.9161 113.408 23.7375C113.999 23.4453 114.294 22.8845 114.294 22.0552C114.319 21.7549 114.25 21.4544 114.096 21.1954C113.942 20.9364 113.711 20.7319 113.435 20.6104C113.006 20.4442 112.548 20.3664 112.088 20.3817L108.771 20.3817Z" fill="black"/>
</svg>
