<svg width="54" height="54" viewBox="0 0 54 54" fill="none" xmlns="http://www.w3.org/2000/svg">
<g opacity="0.69">
<path d="M24.75 47.25L27 36L24.75 27L18 18M18 18H27L33.75 11.25M18 18L11.25 27L13.5 36M30.375 27H36L45 31.5M11.25 11.25C11.25 11.8467 11.4871 12.419 11.909 12.841C12.331 13.2629 12.9033 13.5 13.5 13.5C14.0967 13.5 14.669 13.2629 15.091 12.841C15.5129 12.419 15.75 11.8467 15.75 11.25C15.75 10.6533 15.5129 10.081 15.091 9.65901C14.669 9.23705 14.0967 9 13.5 9C12.9033 9 12.331 9.23705 11.909 9.65901C11.4871 10.081 11.25 10.6533 11.25 11.25Z" stroke="black" stroke-width="4" stroke-linecap="round" stroke-linejoin="round"/>
</g>
</svg>
