<svg width="53" height="43" viewBox="0 0 53 43" fill="none" xmlns="http://www.w3.org/2000/svg">
<g opacity="0.69" clip-path="url(#clip0_1100_112)">
<path d="M27.7856 0.338672L51.6356 13.7762C52.9109 14.4984 53.3746 16.1361 52.6624 17.4295C51.9502 18.7229 50.3354 19.1932 49.0601 18.4709L26.502 5.76406L3.93558 18.4793C2.66027 19.2016 1.04543 18.7313 0.333239 17.4379C-0.378948 16.1445 0.0848014 14.5068 1.36011 13.7846L25.2184 0.338672C26.0217 -0.114844 26.9906 -0.114844 27.7938 0.338672H27.7856ZM26.502 13.4402C27.3805 13.4402 28.2231 13.7942 28.8443 14.4242C29.4655 15.0542 29.8145 15.9087 29.8145 16.7996C29.8145 17.6906 29.4655 18.545 28.8443 19.1751C28.2231 19.8051 27.3805 20.159 26.502 20.159C25.6234 20.159 24.7809 19.8051 24.1597 19.1751C23.5385 18.545 23.1895 17.6906 23.1895 16.7996C23.1895 15.9087 23.5385 15.0542 24.1597 14.4242C24.7809 13.7942 25.6234 13.4402 26.502 13.4402ZM11.927 21.5027C12.8055 21.5027 13.6481 21.8567 14.2693 22.4867C14.8905 23.1167 15.2395 23.9712 15.2395 24.8621C15.2395 25.7531 14.8905 26.6075 14.2693 27.2376C13.6481 27.8676 12.8055 28.2215 11.927 28.2215C11.0485 28.2215 10.2059 27.8676 9.58469 27.2376C8.96348 26.6075 8.61448 25.7531 8.61448 24.8621C8.61448 23.9712 8.96348 23.1167 9.58469 22.4867C10.2059 21.8567 11.0485 21.5027 11.927 21.5027ZM37.7645 24.8621C37.7645 23.9712 38.1135 23.1167 38.7347 22.4867C39.3559 21.8567 40.1984 21.5027 41.077 21.5027C41.9555 21.5027 42.798 21.8567 43.4193 22.4867C44.0405 23.1167 44.3895 23.9712 44.3895 24.8621C44.3895 25.7531 44.0405 26.6075 43.4193 27.2376C42.798 27.8676 41.9555 28.2215 41.077 28.2215C40.1984 28.2215 39.3559 27.8676 38.7347 27.2376C38.1135 26.6075 37.7645 25.7531 37.7645 24.8621ZM18.7921 41.2727L16.5645 37.0818V40.3152C16.5645 41.8018 15.3803 43.0027 13.9145 43.0027H9.93948C8.4737 43.0027 7.28949 41.8018 7.28949 40.3152V37.0818L5.06183 41.2727C4.54011 42.2553 3.33933 42.6164 2.37043 42.0957C1.40152 41.575 1.04543 40.3488 1.55886 39.3662L4.69746 33.4621C5.96449 31.0686 8.4323 29.5736 11.1154 29.5736H12.7303C14.0801 29.5736 15.372 29.9516 16.49 30.6318L19.2724 25.3996C20.5395 23.0061 23.0073 21.5111 25.6904 21.5111H27.3053C29.9884 21.5111 32.4479 23.0061 33.7232 25.3996L36.5057 30.6318C37.6237 29.9516 38.9156 29.5736 40.2654 29.5736H41.8802C44.5634 29.5736 47.0229 31.0686 48.2982 33.4621L51.4368 39.3662C51.9585 40.3488 51.5942 41.5666 50.6252 42.0957C49.6563 42.6248 48.4556 42.2553 47.9338 41.2727L45.7145 37.0818V40.3152C45.7145 41.8018 44.5302 43.0027 43.0645 43.0027H39.0895C37.6237 43.0027 36.4395 41.8018 36.4395 40.3152V37.0818L34.2118 41.2727C33.6901 42.2553 32.4893 42.6164 31.5204 42.0957C30.5515 41.575 30.1954 40.3488 30.7088 39.3662L33.7149 33.6973C33.5742 33.5545 33.4499 33.3949 33.3588 33.2102L31.1395 29.0193V33.5965C31.1395 35.083 29.9553 36.284 28.4895 36.284H24.5145C23.0487 36.284 21.8645 35.083 21.8645 33.5965V29.0193L19.6368 33.2102C19.5374 33.3949 19.4215 33.5545 19.2807 33.6973L22.2868 39.3662C22.8085 40.3488 22.4442 41.5666 21.4753 42.0957C20.5064 42.6248 19.3056 42.2553 18.7839 41.2727H18.7921Z" fill="black"/>
</g>
<defs>
<clipPath id="clip0_1100_112">
<rect width="53" height="43" fill="white"/>
</clipPath>
</defs>
</svg>
