<svg width="52" height="52" viewBox="0 0 52 52" fill="none" xmlns="http://www.w3.org/2000/svg">
<g opacity="0.69">
<path d="M50.2044 25.2728L42.0794 9.02281C41.9443 8.75284 41.7366 8.52583 41.4798 8.36725C41.2229 8.20867 40.9269 8.12478 40.625 8.125H11.375C11.0731 8.12478 10.7771 8.20867 10.5202 8.36725C10.2634 8.52583 10.0557 8.75284 9.92062 9.02281L1.79563 25.2728C1.68375 25.4989 1.62537 25.7477 1.625 26V37.375C1.625 38.237 1.96741 39.0636 2.5769 39.6731C3.1864 40.2826 4.01305 40.625 4.875 40.625H47.125C47.987 40.625 48.8136 40.2826 49.4231 39.6731C50.0326 39.0636 50.375 38.237 50.375 37.375V26C50.3746 25.7477 50.3162 25.4989 50.2044 25.2728ZM20.1216 11.375L22.5591 16.25H16.4409L14.0034 11.375H20.1216ZM29.8716 11.375L32.3091 16.25H26.1909L23.7534 11.375H29.8716ZM20.5034 24.375L18.0659 19.5H24.1841L26.6216 24.375H20.5034ZM30.2534 24.375L27.8159 19.5H33.9341L36.3716 24.375H30.2534ZM40.0034 24.375L37.5659 19.5H43.6841L46.1216 24.375H40.0034ZM42.0591 16.25H35.9409L33.5034 11.375H39.6216L42.0591 16.25ZM4.875 26.3839L11.375 13.3839L17.875 26.3839V37.375H4.875V26.3839ZM21.125 37.375V27.625H47.125V37.375H21.125Z" fill="black"/>
</g>
</svg>
