<svg width="52" height="52" viewBox="0 0 52 52" fill="none" xmlns="http://www.w3.org/2000/svg">
<g opacity="0.69">
<path d="M50.9295 24.9092L42.8045 8.65922C42.602 8.25456 42.2909 7.91426 41.906 7.67641C41.521 7.43856 41.0775 7.31255 40.625 7.3125H11.375C10.9225 7.31255 10.479 7.43856 10.094 7.67641C9.70909 7.91426 9.39796 8.25456 9.19547 8.65922L1.07047 24.9092C0.900913 25.2478 0.812589 25.6213 0.8125 26V37.375C0.8125 38.4524 1.24051 39.4858 2.00238 40.2476C2.37962 40.6249 2.82746 40.9241 3.32035 41.1283C3.81323 41.3324 4.3415 41.4375 4.875 41.4375H47.125C48.2024 41.4375 49.2358 41.0095 49.9976 40.2476C50.7595 39.4858 51.1875 38.4524 51.1875 37.375V26C51.1874 25.6213 51.0991 25.2478 50.9295 24.9092ZM19.6178 12.1875L21.2428 15.4375H16.9447L15.3197 12.1875H19.6178ZM29.3678 12.1875L30.9928 15.4375H26.6947L25.0697 12.1875H29.3678ZM21.0072 23.5625L19.3822 20.3125H23.6803L25.3053 23.5625H21.0072ZM30.7572 23.5625L29.1322 20.3125H33.4303L35.0553 23.5625H30.7572ZM40.5072 23.5625L38.8822 20.3125H43.1803L44.8053 23.5625H40.5072ZM40.7428 15.4375H36.4447L34.8197 12.1875H39.1178L40.7428 15.4375ZM5.6875 26.5748L11.375 15.1998L17.0625 26.5748V36.5625H5.6875V26.5748ZM21.9375 36.5625V28.4375H46.3125V36.5625H21.9375Z" fill="black"/>
</g>
</svg>
