<svg width="53" height="53" viewBox="0 0 53 53" fill="none" xmlns="http://www.w3.org/2000/svg">
<g opacity="0.69">
<path d="M29.8125 9.9375C29.8125 9.05897 30.1615 8.21642 30.7827 7.59521C31.4039 6.97399 32.2465 6.625 33.125 6.625H43.0625C43.941 6.625 44.7836 6.97399 45.4048 7.59521C46.026 8.21642 46.375 9.05897 46.375 9.9375V38.0938C46.375 40.2901 45.5025 42.3964 43.9495 43.9495C42.3964 45.5025 40.2901 46.375 38.0938 46.375H6.625C5.74647 46.375 4.90392 46.026 4.28271 45.4048C3.66149 44.7836 3.3125 43.941 3.3125 43.0625V33.125C3.3125 32.2465 3.66149 31.4039 4.28271 30.7827C4.90392 30.1615 5.74647 29.8125 6.625 29.8125H16.5625V23.1875C16.5625 22.309 16.9115 21.4664 17.5327 20.8452C18.1539 20.224 18.9965 19.875 19.875 19.875H29.8125V9.9375ZM43.0625 9.9375H33.125V19.875C33.125 20.7535 32.776 21.5961 32.1548 22.2173C31.5336 22.8385 30.691 23.1875 29.8125 23.1875H19.875V29.8125C19.875 30.691 19.526 31.5336 18.9048 32.1548C18.2836 32.776 17.441 33.125 16.5625 33.125H6.625V43.0625H38.0938C39.4115 43.0625 40.6754 42.539 41.6072 41.6072C42.539 40.6754 43.0625 39.4115 43.0625 38.0938V9.9375Z" fill="black"/>
</g>
</svg>
